<svg width="31" height="30" viewBox="0 0 31 30" fill="none" xmlns="http://www.w3.org/2000/svg">
<g clip-path="url(#clip0_7_626)">
<path d="M11.361 14.9999C9.87767 14.9999 8.42762 14.56 7.19425 13.7359C5.96088 12.9118 4.99959 11.7405 4.43193 10.37C3.86427 8.99959 3.71575 7.49159 4.00514 6.03673C4.29453 4.58188 5.00883 3.2455 6.05773 2.19661C7.10662 1.14772 8.44299 0.433411 9.89785 0.144022C11.3527 -0.145367 12.8607 0.00315809 14.2312 0.570815C15.6016 1.13847 16.7729 2.09977 17.597 3.33313C18.4212 4.5665 18.861 6.01655 18.861 7.49991C18.859 9.48843 18.0682 11.3949 16.6621 12.801C15.256 14.2071 13.3495 14.9979 11.361 14.9999ZM11.361 2.49991C10.3721 2.49991 9.40542 2.79316 8.58318 3.34256C7.76093 3.89197 7.12007 4.67286 6.74163 5.58649C6.36319 6.50013 6.26417 7.50546 6.4571 8.47536C6.65003 9.44527 7.12623 10.3362 7.82549 11.0354C8.52476 11.7347 9.41567 12.2109 10.3856 12.4038C11.3555 12.5968 12.3608 12.4977 13.2744 12.1193C14.1881 11.7409 14.969 11.1 15.5184 10.2778C16.0678 9.45552 16.361 8.48882 16.361 7.49991C16.361 6.17383 15.8342 4.90206 14.8966 3.96438C13.9589 3.0267 12.6871 2.49991 11.361 2.49991Z" fill="#979797"/>
<path d="M22.6111 29.9996H20.1111V23.6958C20.1098 22.7159 19.7199 21.7766 19.027 21.0837C18.3342 20.3908 17.3948 20.0009 16.4149 19.9996H6.30736C5.32746 20.0009 4.38808 20.3908 3.69518 21.0837C3.00229 21.7766 2.61244 22.7159 2.61111 23.6958V29.9996H0.111115V23.6958C0.113099 22.0531 0.766554 20.4782 1.92815 19.3166C3.08974 18.155 4.66463 17.5016 6.30736 17.4996H16.4149C18.0576 17.5016 19.6325 18.155 20.7941 19.3166C21.9557 20.4782 22.6091 22.0531 22.6111 23.6958V29.9996Z" fill="#979797"/>
<path d="M27.6109 9.84375C26.9153 9.8784 26.2617 10.1872 25.7932 10.7026C25.3246 11.218 25.0793 11.898 25.1109 12.5937C25.1425 11.898 24.8973 11.218 24.4287 10.7026C23.9602 10.1872 23.3066 9.8784 22.611 9.84375C21.9153 9.8784 21.2617 10.1872 20.7932 10.7026C20.3247 11.218 20.0794 11.898 20.111 12.5937C20.111 15.4687 25.1109 19.01 25.1109 19.01C25.1109 19.01 30.1109 15.4737 30.1109 12.5937C30.1425 11.898 29.8972 11.218 29.4287 10.7026C28.9602 10.1872 28.3066 9.8784 27.6109 9.84375Z" fill="#979797"/>
</g>
<defs>
<clipPath id="clip0_7_626">
<rect width="30" height="30" fill="white" transform="translate(0.111115)"/>
</clipPath>
</defs>
</svg>
