<svg width="70" height="48" viewBox="0 0 70 48" fill="none" xmlns="http://www.w3.org/2000/svg">
<mask id="mask0_24_352" style="mask-type:alpha" maskUnits="userSpaceOnUse" x="0" y="0" width="70" height="48">
<rect width="70" height="48" fill="#016FD0"/>
</mask>
<g mask="url(#mask0_24_352)">
<rect width="70" height="48" rx="4" fill="#F1F9FF"/>
<path d="M13.6159 36.7213V25.7087H25.2761L26.5271 27.3396L27.8195 25.7087H70.1433V35.9618C70.1433 35.9618 69.0364 36.7103 67.7563 36.7213H44.3208L42.9103 34.9853V36.7213H38.2883V33.7579C38.2883 33.7579 37.6569 34.1716 36.2919 34.1716H34.7187V36.7213H27.7206L26.4714 35.0554L25.203 36.7213H13.6159Z" fill="white"/>
<path d="M0 17.4088L2.62943 11.2787H7.17674L8.66898 14.7125V11.2787H14.3217L15.21 13.7606L16.0712 11.2787H41.4462V12.5264C41.4462 12.5264 42.7801 11.2787 44.9723 11.2787L53.2056 11.3075L54.6721 14.6964V11.2787H59.4026L60.7045 13.2253V11.2787H65.4784V22.2912H60.7045L59.4568 20.3382V22.2912H52.5066L51.8077 20.5552H49.9393L49.2517 22.2912H44.5384C42.652 22.2912 41.4462 21.069 41.4462 21.069V22.2912H34.3396L32.9291 20.5552V22.2912H6.50309L5.80463 20.5552H3.94215L3.24864 22.2912H0V17.4088Z" fill="white"/>
<path d="M3.55824 12.636L0.0117188 20.8818H2.32069L2.97507 19.2306H6.77927L7.43026 20.8818H9.79008L6.24695 12.636H3.55824ZM4.87039 14.555L6.02996 17.4404H3.70743L4.87039 14.555Z" fill="#016FD0"/>
<path d="M10.0343 20.8799V12.634L13.3155 12.6462L15.2239 17.9626L17.0867 12.634H20.3416V20.8799H18.2801V14.804L16.0949 20.8799H14.287L12.0958 14.804V20.8799H10.0343Z" fill="#016FD0"/>
<path d="M21.7537 20.8799V12.634H28.4806V14.4785H23.8369V15.889H28.3722V17.625H23.8369V19.0897H28.4806V20.8799H21.7537Z" fill="#016FD0"/>
<path d="M29.6724 12.636V20.8819H31.7338V17.9524H32.6018L35.0736 20.8819H37.5928L34.8803 17.8439C35.9935 17.75 37.1418 16.7945 37.1418 15.3112C37.1418 13.5759 35.7799 12.636 34.2598 12.636H29.6724ZM31.7338 14.4805H34.0903C34.6556 14.4805 35.0668 14.9226 35.0668 15.3485C35.0668 15.8963 34.534 16.2164 34.1208 16.2164H31.7338V14.4805Z" fill="#016FD0"/>
<path d="M40.0912 20.8799H37.9863V12.634H40.0912V20.8799Z" fill="#016FD0"/>
<path d="M45.0816 20.8799H44.6273C42.429 20.8799 41.0943 19.148 41.0943 16.7909C41.0943 14.3755 42.4141 12.634 45.1901 12.634H47.4686V14.587H45.1068C43.9799 14.587 43.1829 15.4665 43.1829 16.8112C43.1829 18.4082 44.0942 19.0789 45.4071 19.0789H45.9496L45.0816 20.8799Z" fill="#016FD0"/>
<path d="M49.5689 12.636L46.0223 20.8818H48.3313L48.9857 19.2306H52.7899L53.4409 20.8818H55.8007L52.2576 12.636H49.5689ZM50.881 14.555L52.0406 17.4404H49.718L50.881 14.555Z" fill="#016FD0"/>
<path d="M56.0391 20.8799V12.634H58.66L62.0065 17.8149V12.634H64.068V20.8799H61.5318L58.1005 15.5635V20.8799H56.0391Z" fill="#016FD0"/>
<path d="M15.027 35.311V27.0651H21.7539V28.9095H17.1102V30.32H21.6454V32.056H17.1102V33.5207H21.7539V35.311H15.027Z" fill="#016FD0"/>
<path d="M47.9873 35.311V27.0651H54.7142V28.9095H50.0705V30.32H54.584V32.056H50.0705V33.5207H54.7142V35.311H47.9873Z" fill="#016FD0"/>
<path d="M22.0157 35.3109L25.2909 31.2388L21.9377 27.0651H24.5348L26.5319 29.6453L28.5357 27.0651H31.0312L27.722 31.188L31.0033 35.3109H28.4065L26.4675 32.7714L24.5755 35.3109H22.0157Z" fill="#016FD0"/>
<path d="M31.2459 27.066V35.3119H33.3616V32.708H35.5316C37.3677 32.708 38.7595 31.7339 38.7595 29.8395C38.7595 28.2703 37.6679 27.066 35.7995 27.066H31.2459ZM33.3616 28.9309H35.6469C36.2401 28.9309 36.6641 29.2944 36.6641 29.8802C36.6641 30.4306 36.2422 30.8296 35.6401 30.8296H33.3616V28.9309Z" fill="#016FD0"/>
<path d="M39.6558 27.0651V35.311H41.7172V32.3815H42.5852L45.057 35.311H47.5762L44.8637 32.273C45.9769 32.1791 47.1252 31.2236 47.1252 29.7402C47.1252 28.005 45.7633 27.0651 44.2432 27.0651H39.6558ZM41.7172 28.9095H44.0737C44.639 28.9095 45.0502 29.3517 45.0502 29.7775C45.0502 30.3254 44.5174 30.6455 44.1042 30.6455H41.7172V28.9095Z" fill="#016FD0"/>
<path d="M55.6706 35.311V33.5207H59.7962C60.4067 33.5207 60.671 33.1909 60.671 32.8291C60.671 32.4824 60.4075 32.132 59.7962 32.132H57.9319C56.3113 32.132 55.4088 31.1446 55.4088 29.6623C55.4088 28.3401 56.2353 27.0651 58.6434 27.0651H62.6579L61.7899 28.9204H58.3179C57.6543 28.9204 57.4499 29.2687 57.4499 29.6012C57.4499 29.9431 57.7024 30.32 58.2094 30.32H60.1624C61.9689 30.32 62.7528 31.3447 62.7528 32.6867C62.7528 34.1293 61.8793 35.311 60.0641 35.311H55.6706Z" fill="#016FD0"/>
<path d="M63.235 35.311V33.5207H67.3607C67.9711 33.5207 68.2355 33.1909 68.2355 32.8291C68.2355 32.4824 67.972 32.132 67.3607 32.132H65.4963C63.8758 32.132 62.9733 31.1446 62.9733 29.6623C62.9733 28.3401 63.7998 27.0651 66.2079 27.0651H70.1403L69.3544 28.9204H65.8824C65.2187 28.9204 65.0144 29.2687 65.0144 29.6012C65.0144 29.9431 65.2669 30.32 65.7739 30.32H67.7269C69.5334 30.32 70.3173 31.3447 70.3173 32.6867C70.3173 34.1293 69.4438 35.311 67.6285 35.311H63.235Z" fill="#016FD0"/>
</g>
</svg>
