<svg width="31" height="30" viewBox="0 0 31 30" fill="none" xmlns="http://www.w3.org/2000/svg">
<g clip-path="url(#clip0_7_738)">
<path d="M28.7246 5.09625C28.373 4.6743 27.9328 4.33494 27.4353 4.10227C26.9378 3.8696 26.3951 3.74933 25.8459 3.75H5.63587L5.58337 3.31125C5.47593 2.39927 5.0376 1.55842 4.35149 0.948097C3.66537 0.337779 2.77916 0.000427242 1.86087 0L1.58337 0C1.25185 0 0.933911 0.131696 0.699491 0.366117C0.46507 0.600537 0.333374 0.918479 0.333374 1.25C0.333374 1.58152 0.46507 1.89946 0.699491 2.13388C0.933911 2.3683 1.25185 2.5 1.58337 2.5H1.86087C2.16704 2.50004 2.46255 2.61245 2.69134 2.81589C2.92013 3.01934 3.0663 3.29969 3.10212 3.60375L4.82212 18.2288C5.00069 19.7497 5.73147 21.1522 6.87576 22.17C8.02005 23.1878 9.49819 23.75 11.0296 23.75H24.0834C24.4149 23.75 24.7328 23.6183 24.9673 23.3839C25.2017 23.1495 25.3334 22.8315 25.3334 22.5C25.3334 22.1685 25.2017 21.8505 24.9673 21.6161C24.7328 21.3817 24.4149 21.25 24.0834 21.25H11.0296C10.2559 21.2478 9.50187 21.0064 8.87079 20.5588C8.23971 20.1113 7.76252 19.4794 7.50462 18.75H22.4046C23.87 18.7501 25.2888 18.2353 26.4132 17.2955C27.5375 16.3558 28.2959 15.0509 28.5559 13.6088L29.5371 8.16625C29.6351 7.62626 29.6131 7.07133 29.4726 6.5408C29.3322 6.01026 29.0769 5.5171 28.7246 5.09625ZM27.0834 7.7225L26.1009 13.165C25.9448 14.0312 25.489 14.815 24.8132 15.379C24.1374 15.943 23.2848 16.2513 22.4046 16.25H7.10712L5.93087 6.25H25.8459C26.0295 6.2489 26.2111 6.28828 26.3778 6.36532C26.5445 6.44236 26.6921 6.55518 26.8103 6.69576C26.9284 6.83634 27.0141 7.00121 27.0613 7.17867C27.1085 7.35613 27.1161 7.54181 27.0834 7.7225Z" fill="#F091FF"/>
<path d="M9.08355 30.0008C10.4643 30.0008 11.5835 28.8815 11.5835 27.5008C11.5835 26.1201 10.4643 25.0008 9.08355 25.0008C7.70284 25.0008 6.58356 26.1201 6.58356 27.5008C6.58356 28.8815 7.70284 30.0008 9.08355 30.0008Z" fill="#F091FF"/>
<path d="M21.5834 30.0008C22.9641 30.0008 24.0834 28.8815 24.0834 27.5008C24.0834 26.1201 22.9641 25.0008 21.5834 25.0008C20.2027 25.0008 19.0834 26.1201 19.0834 27.5008C19.0834 28.8815 20.2027 30.0008 21.5834 30.0008Z" fill="#F091FF"/>
</g>
<defs>
<clipPath id="clip0_7_738">
<rect width="30" height="30" fill="white" transform="translate(0.333374)"/>
</clipPath>
</defs>
</svg>
