<svg width="31" height="30" viewBox="0 0 31 30" fill="none" xmlns="http://www.w3.org/2000/svg">
<g clip-path="url(#clip0_7_748)">
<path d="M28.7246 5.09625C28.373 4.6743 27.9328 4.33494 27.4353 4.10227C26.9377 3.8696 26.3951 3.74933 25.8458 3.75H5.63584L5.58334 3.31125C5.4759 2.39927 5.03757 1.55842 4.35146 0.948097C3.66534 0.337779 2.77913 0.000427242 1.86084 0L1.58334 0C1.25182 0 0.933881 0.131696 0.69946 0.366117C0.46504 0.600537 0.333344 0.918479 0.333344 1.25C0.333344 1.58152 0.46504 1.89946 0.69946 2.13388C0.933881 2.3683 1.25182 2.5 1.58334 2.5H1.86084C2.16701 2.50004 2.46251 2.61245 2.69131 2.81589C2.9201 3.01934 3.06627 3.29969 3.10209 3.60375L4.82209 18.2288C5.00066 19.7497 5.73144 21.1522 6.87573 22.17C8.02002 23.1878 9.49816 23.75 11.0296 23.75H24.0833C24.4149 23.75 24.7328 23.6183 24.9672 23.3839C25.2016 23.1495 25.3333 22.8315 25.3333 22.5C25.3333 22.1685 25.2016 21.8505 24.9672 21.6161C24.7328 21.3817 24.4149 21.25 24.0833 21.25H11.0296C10.2559 21.2478 9.50184 21.0064 8.87076 20.5588C8.23968 20.1113 7.76249 19.4794 7.50459 18.75H22.4046C23.87 18.7501 25.2888 18.2353 26.4131 17.2955C27.5375 16.3558 28.2959 15.0509 28.5558 13.6088L29.5371 8.16625C29.635 7.62626 29.613 7.07133 29.4726 6.5408C29.3322 6.01026 29.0768 5.5171 28.7246 5.09625ZM27.0833 7.7225L26.1008 13.165C25.9448 14.0312 25.4889 14.815 24.8132 15.379C24.1374 15.943 23.2848 16.2513 22.4046 16.25H7.10709L5.93084 6.25H25.8458C26.0295 6.2489 26.2111 6.28828 26.3778 6.36532C26.5444 6.44236 26.6921 6.55518 26.8102 6.69576C26.9284 6.83634 27.0141 7.00121 27.0613 7.17867C27.1085 7.35613 27.116 7.54181 27.0833 7.7225Z" fill="#979797"/>
<path d="M9.08352 30.0008C10.4642 30.0008 11.5835 28.8815 11.5835 27.5008C11.5835 26.1201 10.4642 25.0008 9.08352 25.0008C7.70281 25.0008 6.58353 26.1201 6.58353 27.5008C6.58353 28.8815 7.70281 30.0008 9.08352 30.0008Z" fill="#979797"/>
<path d="M21.5833 30.0008C22.964 30.0008 24.0833 28.8815 24.0833 27.5008C24.0833 26.1201 22.964 25.0008 21.5833 25.0008C20.2026 25.0008 19.0833 26.1201 19.0833 27.5008C19.0833 28.8815 20.2026 30.0008 21.5833 30.0008Z" fill="#979797"/>
</g>
<defs>
<clipPath id="clip0_7_748">
<rect width="30" height="30" fill="white" transform="translate(0.333344)"/>
</clipPath>
</defs>
</svg>
