<svg width="15" height="15" viewBox="0 0 15 15" fill="none" xmlns="http://www.w3.org/2000/svg">
<g clip-path="url(#clip0_7_120)">
<path d="M12.5 12.5H0V1.875C0 1.37772 0.197544 0.900805 0.549175 0.549175C0.900805 0.197544 1.37772 0 1.875 0L10.625 0C11.1223 0 11.5992 0.197544 11.9508 0.549175C12.3025 0.900805 12.5 1.37772 12.5 1.875V12.5ZM1.25 11.25H11.25V1.875C11.25 1.70924 11.1842 1.55027 11.0669 1.43306C10.9497 1.31585 10.7908 1.25 10.625 1.25H1.875C1.70924 1.25 1.55027 1.31585 1.43306 1.43306C1.31585 1.55027 1.25 1.70924 1.25 1.875V11.25ZM13.75 2.615V13.75H2.5V15H15V4.375C14.9984 3.98859 14.8774 3.61211 14.6537 3.29706C14.4299 2.98202 14.1143 2.7438 13.75 2.615Z" fill="#374957"/>
</g>
<defs>
<clipPath id="clip0_7_120">
<rect width="15" height="15" fill="white"/>
</clipPath>
</defs>
</svg>
