<svg width="31" height="30" viewBox="0 0 31 30" fill="none" xmlns="http://www.w3.org/2000/svg">
<g clip-path="url(#clip0_7_743)">
<path d="M29.0162 5.09625C28.6646 4.6743 28.2245 4.33494 27.7269 4.10227C27.2294 3.8696 26.6867 3.74933 26.1375 3.75H5.9275L5.875 3.31125C5.76756 2.39927 5.32923 1.55842 4.64311 0.948097C3.95699 0.337779 3.07078 0.000427242 2.1525 0L1.875 0C1.54348 0 1.22554 0.131696 0.991117 0.366117C0.756696 0.600537 0.625 0.918479 0.625 1.25C0.625 1.58152 0.756696 1.89946 0.991117 2.13388C1.22554 2.3683 1.54348 2.5 1.875 2.5H2.1525C2.45867 2.50004 2.75417 2.61245 2.98296 2.81589C3.21176 3.01934 3.35793 3.29969 3.39375 3.60375L5.11375 18.2288C5.29232 19.7497 6.0231 21.1522 7.16739 22.17C8.31167 23.1878 9.78982 23.75 11.3212 23.75H24.375C24.7065 23.75 25.0245 23.6183 25.2589 23.3839C25.4933 23.1495 25.625 22.8315 25.625 22.5C25.625 22.1685 25.4933 21.8505 25.2589 21.6161C25.0245 21.3817 24.7065 21.25 24.375 21.25H11.3212C10.5476 21.2478 9.7935 21.0064 9.16242 20.5588C8.53134 20.1113 8.05414 19.4794 7.79625 18.75H22.6962C24.1616 18.7501 25.5804 18.2353 26.7048 17.2955C27.8291 16.3558 28.5875 15.0509 28.8475 13.6088L29.8288 8.16625C29.9267 7.62626 29.9047 7.07133 29.7643 6.5408C29.6239 6.01026 29.3685 5.5171 29.0162 5.09625ZM27.375 7.7225L26.3925 13.165C26.2364 14.0312 25.7806 14.815 25.1048 15.379C24.4291 15.943 23.5764 16.2513 22.6962 16.25H7.39875L6.2225 6.25H26.1375C26.3211 6.2489 26.5027 6.28828 26.6694 6.36532C26.8361 6.44236 26.9838 6.55518 27.1019 6.69576C27.22 6.83634 27.3058 7.00121 27.353 7.17867C27.4002 7.35613 27.4077 7.54181 27.375 7.7225Z" fill="#979797"/>
<path d="M9.37518 30.0008C10.7559 30.0008 11.8752 28.8815 11.8752 27.5008C11.8752 26.1201 10.7559 25.0008 9.37518 25.0008C7.99447 25.0008 6.87518 26.1201 6.87518 27.5008C6.87518 28.8815 7.99447 30.0008 9.37518 30.0008Z" fill="#979797"/>
<path d="M21.875 30.0008C23.2557 30.0008 24.375 28.8815 24.375 27.5008C24.375 26.1201 23.2557 25.0008 21.875 25.0008C20.4943 25.0008 19.375 26.1201 19.375 27.5008C19.375 28.8815 20.4943 30.0008 21.875 30.0008Z" fill="#979797"/>
</g>
<defs>
<clipPath id="clip0_7_743">
<rect width="30" height="30" fill="white" transform="translate(0.625)"/>
</clipPath>
</defs>
</svg>
