<svg width="12.000000" height="12.000000" viewBox="0 0 12 12" fill="none" xmlns="http://www.w3.org/2000/svg" xmlns:xlink="http://www.w3.org/1999/xlink">
	<desc>
			Created with Pixso.
	</desc>
	<defs>
		<clipPath id="clip14_405">
			<rect id="fi-rr-envelope" width="12.000000" height="12.000000" fill="white" fill-opacity="0"/>
		</clipPath>
	</defs>
	<rect id="fi-rr-envelope" width="12.000000" height="12.000000" fill="#FFFFFF" fill-opacity="0"/>
	<g clip-path="url(#clip14_405)">
		<path id="Vector" d="M9.5 0.499878L2.5 0.499878C1.83719 0.500671 1.20178 0.764343 0.733124 1.23297C0.264435 1.70166 0.000793457 2.3371 0 2.99988L0 8.99988C0.000793457 9.66266 0.264435 10.2981 0.733124 10.7668C1.20178 11.2354 1.83719 11.4991 2.5 11.4999L9.5 11.4999C10.1628 11.4991 10.7982 11.2354 11.2669 10.7668C11.7356 10.2981 11.9992 9.66266 12 8.99988L12 2.99988C11.9992 2.3371 11.7356 1.70166 11.2669 1.23297C10.7982 0.764343 10.1628 0.500671 9.5 0.499878ZM2.5 1.49988L9.5 1.49988C9.79938 1.50049 10.0918 1.59064 10.3395 1.75879C10.5872 1.92694 10.7789 2.16534 10.89 2.44336L7.061 6.27289C6.77921 6.55353 6.39771 6.71112 6 6.71112C5.60229 6.71112 5.22079 6.55353 4.939 6.27289L1.10999 2.44336C1.22107 2.16534 1.41281 1.92694 1.66052 1.75879C1.90823 1.59064 2.20062 1.50049 2.5 1.49988ZM9.5 10.4999L2.5 10.4999C2.10217 10.4999 1.72064 10.3419 1.43933 10.0605C1.15802 9.77924 1 9.39771 1 8.99988L1 3.74988L4.23199 6.97986C4.70132 7.448 5.33713 7.71088 6 7.71088C6.66287 7.71088 7.29868 7.448 7.76801 6.97986L11 3.74988L11 8.99988C11 9.39771 10.842 9.77924 10.5607 10.0605C10.2794 10.3419 9.89783 10.4999 9.5 10.4999Z" fill="#612EF7" fill-opacity="1.000000" fill-rule="nonzero"/>
	</g>
</svg>
