<svg width="20" height="20" viewBox="0 0 20 20" fill="none" xmlns="http://www.w3.org/2000/svg">
<path d="M17.0783 6.63969L9.12833 0.806361C8.50741 0.351682 7.77269 0.0778564 7.00564 0.0152471C6.23859 -0.0473621 5.46919 0.103692 4.78275 0.451659C4.0963 0.799626 3.51965 1.33091 3.11672 1.9866C2.71378 2.64229 2.50032 3.39676 2.5 4.16636V15.833C2.50014 16.603 2.71361 17.3578 3.11673 18.0138C3.51985 18.6698 4.09684 19.2013 4.78368 19.5492C5.47052 19.8972 6.24034 20.048 7.00771 19.985C7.77507 19.922 8.50996 19.6475 9.13083 19.1922L17.0808 13.3589C17.6086 12.9719 18.0377 12.466 18.3335 11.8822C18.6293 11.2985 18.7835 10.6533 18.7835 9.99886C18.7835 9.34444 18.6293 8.69923 18.3335 8.11548C18.0377 7.53173 17.6086 7.02587 17.0808 6.63886L17.0783 6.63969ZM16.0917 12.0147L8.14167 17.848C7.76918 18.1202 7.32864 18.284 6.86881 18.3213C6.40898 18.3586 5.9478 18.268 5.53631 18.0594C5.12482 17.8508 4.77907 17.5324 4.53734 17.1395C4.2956 16.7465 4.16731 16.2944 4.16667 15.833V4.16636C4.16204 3.70415 4.28791 3.25001 4.52981 2.85613C4.77172 2.46225 5.11983 2.1446 5.53417 1.93969C5.88658 1.76044 6.27629 1.66679 6.67167 1.66636C7.20158 1.66839 7.71685 1.84043 8.14167 2.15719L16.0917 7.99053C16.4079 8.22278 16.6651 8.5262 16.8423 8.87625C17.0195 9.22631 17.1119 9.61316 17.1119 10.0055C17.1119 10.3979 17.0195 10.7847 16.8423 11.1348C16.6651 11.4849 16.4079 11.7883 16.0917 12.0205V12.0147Z" fill="#B049E1"/>
</svg>
