<svg width="25.000000" height="30.000000" viewBox="0 0 25 30" fill="none" xmlns="http://www.w3.org/2000/svg" xmlns:xlink="http://www.w3.org/1999/xlink">
	<desc>
			Created with Pixso.
	</desc>
	<defs>
		<linearGradient id="paint_linear_3_268_0" x1="12.500000" y1="0.000000" x2="12.500000" y2="30.000000" gradientUnits="userSpaceOnUse">
			<stop stop-color="#B049E1"/>
			<stop offset="1.000000" stop-color="#612EF7"/>
		</linearGradient>
	</defs>
	<path id="Vector" d="M18.75 0L6.25 0C4.59302 0.00198364 3.00446 0.661102 1.83276 1.83278C0.661133 3.00444 0.00201416 4.593 0 6.25L0 25C0 26.3261 0.526794 27.5979 1.46448 28.5355C2.40216 29.4732 3.67389 30 5 30L18.75 30C20.407 29.998 21.9955 29.3389 23.1672 28.1672C24.3389 26.9956 24.998 25.407 25 23.75L25 6.25C24.998 4.593 24.3389 3.00444 23.1672 1.83278C21.9955 0.661102 20.407 0.00198364 18.75 0L18.75 0ZM22.5 6.25L22.5 20L7.5 20L7.5 2.5L18.75 2.5C19.7446 2.5 20.6984 2.8951 21.4017 3.59834C22.1049 4.30161 22.5 5.25543 22.5 6.25ZM5 2.715L5 20C4.12201 19.9992 3.25952 20.2308 2.5 20.6712L2.5 6.25C2.50012 5.47461 2.7406 4.71832 3.18829 4.08525C3.63599 3.45218 4.26898 2.97346 5 2.715ZM18.75 27.5L5 27.5C4.33698 27.5 3.70105 27.2366 3.23224 26.7678C2.76337 26.2989 2.5 25.663 2.5 25C2.5 24.337 2.76337 23.7011 3.23224 23.2322C3.70105 22.7634 4.33698 22.5 5 22.5L22.5 22.5L22.5 23.75C22.5 24.7446 22.1049 25.6984 21.4017 26.4017C20.6984 27.1049 19.7446 27.5 18.75 27.5Z" fill="url(#paint_linear_3_268_0)" fill-opacity="1.000000" fill-rule="nonzero"/>
</svg>
