<svg width="31" height="30" viewBox="0 0 31 30" fill="none" xmlns="http://www.w3.org/2000/svg">
<g clip-path="url(#clip0_7_759)">
<path d="M29.7904 11.3361L20.3092 1.85364C19.1357 0.68363 17.5462 0.0266113 15.8892 0.0266113C14.2321 0.0266113 12.6426 0.68363 11.4692 1.85364L1.9879 11.3361C1.63844 11.6834 1.36137 12.0965 1.17276 12.5516C0.984148 13.0067 0.887751 13.4948 0.889155 13.9874V26.2586C0.889155 27.2532 1.28424 28.207 1.9875 28.9103C2.69077 29.6136 3.64459 30.0086 4.63915 30.0086H27.1392C28.1337 30.0086 29.0875 29.6136 29.7908 28.9103C30.4941 28.207 30.8892 27.2532 30.8892 26.2586V13.9874C30.8906 13.4948 30.7942 13.0067 30.6056 12.5516C30.4169 12.0965 30.1399 11.6834 29.7904 11.3361ZM19.6392 27.5086H12.1392V22.5911C12.1392 21.5966 12.5342 20.6428 13.2375 19.9395C13.9408 19.2362 14.8946 18.8411 15.8892 18.8411C16.8837 18.8411 17.8375 19.2362 18.5408 19.9395C19.2441 20.6428 19.6392 21.5966 19.6392 22.5911V27.5086ZM28.3892 26.2586C28.3892 26.5902 28.2575 26.9081 28.023 27.1425C27.7886 27.3769 27.4707 27.5086 27.1392 27.5086H22.1392V22.5911C22.1392 20.9335 21.4807 19.3438 20.3086 18.1717C19.1365 16.9996 17.5468 16.3411 15.8892 16.3411C14.2316 16.3411 12.6418 16.9996 11.4697 18.1717C10.2976 19.3438 9.63916 20.9335 9.63916 22.5911V27.5086H4.63915C4.30763 27.5086 3.98969 27.3769 3.75527 27.1425C3.52085 26.9081 3.38915 26.5902 3.38915 26.2586V13.9874C3.39031 13.6561 3.52189 13.3386 3.7554 13.1036L13.2367 3.62489C13.9413 2.92356 14.895 2.52982 15.8892 2.52982C16.8833 2.52982 17.837 2.92356 18.5417 3.62489L28.0229 13.1074C28.2555 13.3415 28.387 13.6574 28.3892 13.9874V26.2586Z" fill="#979797"/>
</g>
<defs>
<clipPath id="clip0_7_759">
<rect width="30" height="30" fill="white" transform="translate(0.888889)"/>
</clipPath>
</defs>
</svg>
