<svg width="31" height="30" viewBox="0 0 31 30" fill="none" xmlns="http://www.w3.org/2000/svg">
<g clip-path="url(#clip0_7_763)">
<path d="M29.0265 11.3361L19.5453 1.85364C18.3718 0.68363 16.7823 0.0266113 15.1253 0.0266113C13.4682 0.0266113 11.8787 0.68363 10.7053 1.85364L1.22401 11.3361C0.874541 11.6834 0.597472 12.0965 0.408862 12.5516C0.220253 13.0067 0.123856 13.4948 0.125259 13.9874V26.2586C0.125259 27.2532 0.520347 28.207 1.22361 28.9103C1.92687 29.6136 2.8807 30.0086 3.87526 30.0086H26.3753C27.3698 30.0086 28.3237 29.6136 29.0269 28.9103C29.7302 28.207 30.1253 27.2532 30.1253 26.2586V13.9874C30.1267 13.4948 30.0303 13.0067 29.8417 12.5516C29.653 12.0965 29.376 11.6834 29.0265 11.3361ZM18.8753 27.5086H11.3753V22.5911C11.3753 21.5966 11.7703 20.6428 12.4736 19.9395C13.1769 19.2362 14.1307 18.8411 15.1253 18.8411C16.1198 18.8411 17.0737 19.2362 17.7769 19.9395C18.4802 20.6428 18.8753 21.5966 18.8753 22.5911V27.5086ZM27.6253 26.2586C27.6253 26.5902 27.4936 26.9081 27.2591 27.1425C27.0247 27.3769 26.7068 27.5086 26.3753 27.5086H21.3753V22.5911C21.3753 20.9335 20.7168 19.3438 19.5447 18.1717C18.3726 16.9996 16.7829 16.3411 15.1253 16.3411C13.4677 16.3411 11.8779 16.9996 10.7058 18.1717C9.53374 19.3438 8.87526 20.9335 8.87526 22.5911V27.5086H3.87526C3.54374 27.5086 3.2258 27.3769 2.99138 27.1425C2.75696 26.9081 2.62526 26.5902 2.62526 26.2586V13.9874C2.62642 13.6561 2.758 13.3386 2.99151 13.1036L12.4728 3.62489C13.1774 2.92356 14.1311 2.52982 15.1253 2.52982C16.1194 2.52982 17.0731 2.92356 17.7778 3.62489L27.259 13.1074C27.4916 13.3415 27.6231 13.6574 27.6253 13.9874V26.2586Z" fill="#F091FF"/>
</g>
<defs>
<clipPath id="clip0_7_763">
<rect width="30" height="30" fill="white" transform="translate(0.125)"/>
</clipPath>
</defs>
</svg>
