<svg width="12.000000" height="12.000000" viewBox="0 0 12 12" fill="none" xmlns="http://www.w3.org/2000/svg" xmlns:xlink="http://www.w3.org/1999/xlink">
	<desc>
			Created with Pixso.
	</desc>
	<defs>
		<clipPath id="clip14_409">
			<rect id="fi-rr-indent" width="12.000000" height="12.000000" fill="white" fill-opacity="0"/>
		</clipPath>
	</defs>
	<rect id="fi-rr-indent" width="12.000000" height="12.000000" fill="#FFFFFF" fill-opacity="0"/>
	<g clip-path="url(#clip14_409)">
		<path id="Vector" d="M0.5 3.00012L11.5 3.00012C11.6326 3.00012 11.7598 2.94745 11.8535 2.8537C11.9473 2.75989 12 2.63275 12 2.50012C12 2.36749 11.9473 2.24036 11.8535 2.14655C11.7598 2.0528 11.6326 2.00012 11.5 2.00012L0.5 2.00012C0.367401 2.00012 0.240204 2.0528 0.146454 2.14655C0.0526733 2.24036 0 2.36749 0 2.50012C0 2.63275 0.0526733 2.75989 0.146454 2.8537C0.240204 2.94745 0.367401 3.00012 0.5 3.00012Z" fill="#374957" fill-opacity="1.000000" fill-rule="nonzero"/>
		<path id="Vector" d="M11.5001 4.5L4.50006 4.5C4.36746 4.5 4.24026 4.55267 4.14651 4.64642C4.05273 4.74023 4.00006 4.86737 4.00006 5C4.00006 5.13263 4.05273 5.25977 4.14651 5.35358C4.24026 5.44733 4.36746 5.5 4.50006 5.5L11.5001 5.5C11.6327 5.5 11.7599 5.44733 11.8536 5.35358C11.9474 5.25977 12.0001 5.13263 12.0001 5C12.0001 4.86737 11.9474 4.74023 11.8536 4.64642C11.7599 4.55267 11.6327 4.5 11.5001 4.5Z" fill="#374957" fill-opacity="1.000000" fill-rule="nonzero"/>
		<path id="Vector" d="M11.5 9.50012L0.5 9.50012C0.367401 9.50012 0.240204 9.5528 0.146454 9.64655C0.0526733 9.74036 0 9.86749 0 10.0001C0 10.1328 0.0526733 10.2599 0.146454 10.3537C0.240204 10.4474 0.367401 10.5001 0.5 10.5001L11.5 10.5001C11.6326 10.5001 11.7598 10.4474 11.8535 10.3537C11.9473 10.2599 12 10.1328 12 10.0001C12 9.86749 11.9473 9.74036 11.8535 9.64655C11.7598 9.5528 11.6326 9.50012 11.5 9.50012Z" fill="#374957" fill-opacity="1.000000" fill-rule="nonzero"/>
		<path id="Vector" d="M11.5001 6.99988L4.50006 6.99988C4.36746 6.99988 4.24026 7.05255 4.14651 7.1463C4.05273 7.24011 4.00006 7.36725 4.00006 7.49988C4.00006 7.63251 4.05273 7.75964 4.14651 7.85345C4.24026 7.9472 4.36746 7.99988 4.50006 7.99988L11.5001 7.99988C11.6327 7.99988 11.7599 7.9472 11.8536 7.85345C11.9474 7.75964 12.0001 7.63251 12.0001 7.49988C12.0001 7.36725 11.9474 7.24011 11.8536 7.1463C11.7599 7.05255 11.6327 6.99988 11.5001 6.99988Z" fill="#374957" fill-opacity="1.000000" fill-rule="nonzero"/>
		<path id="Vector" d="M0.853485 8.1225L2.34052 6.6355C2.44254 6.53314 2.49985 6.39447 2.49985 6.25C2.49985 6.10547 2.44254 5.9668 2.34052 5.8645L0.853485 4.3775C0.783539 4.30756 0.694427 4.25995 0.597382 4.24066C0.500366 4.22137 0.399811 4.23132 0.308441 4.26923C0.217072 4.30713 0.139008 4.37128 0.0840759 4.45355C0.0291748 4.53583 -9.15527e-05 4.63257 0 4.73145L0 7.76849C-9.15527e-05 7.86737 0.0291748 7.96411 0.0840759 8.04639C0.139008 8.12866 0.217072 8.19281 0.308441 8.23071C0.399811 8.26862 0.500366 8.27856 0.597382 8.25928C0.694427 8.23999 0.783539 8.19238 0.853485 8.1225Z" fill="#374957" fill-opacity="1.000000" fill-rule="nonzero"/>
	</g>
</svg>
