<svg width="70" height="48" viewBox="0 0 70 48" fill="none" xmlns="http://www.w3.org/2000/svg">
<g clip-path="url(#clip0_25_439)">
<path d="M0 6C0 2.68629 2.61167 0 5.83333 0H64.1667C67.3883 0 70 2.68629 70 6V42C70 45.3137 67.3883 48 64.1667 48H5.83333C2.61167 48 0 45.3137 0 42V6Z" fill="#DCEFDC"/>
<path d="M58.1697 15.3085H46.9392C47.5934 19.1216 51.1915 22.7103 55.1168 22.7103H64.0576C64.1666 22.3739 64.1666 21.8131 64.1666 21.4767C64.1666 18.1122 61.4408 15.3085 58.1697 15.3085Z" fill="url(#paint0_linear_25_439)"/>
<path d="M47.9205 23.3832V32.6916H53.3722V27.757H58.1697C60.7866 27.757 63.0763 25.8505 63.8395 23.3832H47.9205Z" fill="#4FAD50"/>
<path d="M28.7305 15.3085V32.5795H33.528C33.528 32.5795 34.7274 32.5795 35.3816 31.3459C38.6526 24.729 39.6339 22.7103 39.6339 22.7103H40.2881V32.5795H45.7398V15.3085H40.9423C40.9423 15.3085 39.7429 15.4206 39.0887 16.5421C36.3629 22.2617 34.8364 25.1776 34.8364 25.1776H34.1822V15.3085H28.7305Z" fill="#4FAD50"/>
<path d="M5.83331 32.6917V15.4207H11.285C11.285 15.4207 12.8115 15.4207 13.6838 17.8879C15.8645 24.3926 16.0826 25.2898 16.0826 25.2898C16.0826 25.2898 16.5187 23.7197 18.4813 17.8879C19.3536 15.4207 20.8801 15.4207 20.8801 15.4207H26.3318V32.6917H20.8801V23.3833H20.2259L17.1729 32.6917H14.7741L11.7212 23.3833H11.067V32.6917H5.83331Z" fill="#4FAD50"/>
</g>
<defs>
<linearGradient id="paint0_linear_25_439" x1="46.9198" y1="19.0625" x2="64.128" y2="19.0625" gradientUnits="userSpaceOnUse">
<stop stop-color="#27B1E6"/>
<stop offset="1" stop-color="#148ACA"/>
</linearGradient>
<clipPath id="clip0_25_439">
<rect width="70" height="48" fill="white"/>
</clipPath>
</defs>
</svg>
