<svg width="12.000000" height="12.000000" viewBox="0 0 12 12" fill="none" xmlns="http://www.w3.org/2000/svg" xmlns:xlink="http://www.w3.org/1999/xlink">
	<desc>
			Created with Pixso.
	</desc>
	<defs>
		<clipPath id="clip14_404">
			<rect id="fi-rs-address-book" width="12.000000" height="12.000000" fill="white" fill-opacity="0"/>
		</clipPath>
	</defs>
	<rect id="fi-rs-address-book" width="12.000000" height="12.000000" fill="#FFFFFF" fill-opacity="0"/>
	<g clip-path="url(#clip14_404)">
		<path id="Vector" d="M9.99991 0L1.49991 0L1.49991 1.5L0.499908 1.5L0.499908 2.5L1.49991 2.5L1.49991 3.5L0.499908 3.5L0.499908 4.5L1.49991 4.5L1.49991 5.5L0.499908 5.5L0.499908 6.5L1.49991 6.5L1.49991 7.5L0.499908 7.5L0.499908 8.5L1.49991 8.5L1.49991 9.5L0.499908 9.5L0.499908 10.5L1.49991 10.5L1.49991 12L9.99991 12C10.3977 12 10.7793 11.842 11.0606 11.5607C11.3419 11.2794 11.4999 10.8978 11.4999 10.5L11.4999 1.5C11.4999 1.10217 11.3419 0.720642 11.0606 0.439331C10.7793 0.15802 10.3977 0 9.99991 0L9.99991 0ZM10.4999 10.5C10.4999 10.6326 10.4472 10.7598 10.3535 10.8536C10.2597 10.9473 10.1325 11 9.99991 11L2.49991 11L2.49991 1L9.99991 1C10.1325 1 10.2597 1.05267 10.3535 1.14642C10.4472 1.24023 10.4999 1.36737 10.4999 1.5L10.4999 10.5ZM6.49991 6C6.79657 6 7.08658 5.91205 7.33325 5.74719C7.57993 5.5824 7.77219 5.34814 7.88574 5.07404C7.99927 4.79993 8.02896 4.49835 7.9711 4.20734C7.91321 3.91638 7.77036 3.64911 7.56058 3.43933C7.3508 3.22955 7.08353 3.08667 6.79254 3.02881C6.50159 2.97095 6.19998 3.00067 5.92587 3.1142C5.65179 3.22772 5.41754 3.41998 5.25272 3.66663C5.08789 3.91333 4.99991 4.20331 4.99991 4.5C4.99991 4.89783 5.15796 5.27936 5.43924 5.56067C5.72055 5.84198 6.10208 6 6.49991 6ZM8.99991 8L8.99991 9L7.99991 9L7.99991 8C7.99991 7.86737 7.94724 7.74023 7.85345 7.64642C7.7597 7.55267 7.63251 7.5 7.49991 7.5L5.49991 7.5C5.36731 7.5 5.24011 7.55267 5.14636 7.64642C5.05258 7.74023 4.99991 7.86737 4.99991 8L4.99991 9L3.99991 9L3.99991 8C3.99991 7.60217 4.15793 7.22064 4.43924 6.93933C4.72055 6.65802 5.10208 6.5 5.49991 6.5L7.49991 6.5C7.89774 6.5 8.27927 6.65802 8.56058 6.93933C8.84186 7.22064 8.99991 7.60217 8.99991 8Z" fill="#612EF7" fill-opacity="1.000000" fill-rule="nonzero"/>
	</g>
</svg>
