<svg width="20" height="20" viewBox="0 0 20 20" fill="none" xmlns="http://www.w3.org/2000/svg">
<path d="M8.80962 17.4405H11.1906" stroke="white" stroke-linecap="round" stroke-linejoin="round"/>
<path d="M14.7619 8.5119C14.7619 7.24897 14.2602 6.03776 13.3671 5.14473C12.4741 4.2517 11.2629 3.75 9.99997 3.75C8.73703 3.75 7.52582 4.2517 6.63279 5.14473C5.73976 6.03776 5.23806 7.24897 5.23806 8.5119V12.6786C5.23806 13.1522 5.04992 13.6064 4.71504 13.9413C4.38015 14.2761 3.92595 14.4643 3.45235 14.4643H16.5476C16.074 14.4643 15.6198 14.2761 15.2849 13.9413C14.95 13.6064 14.7619 13.1522 14.7619 12.6786V8.5119Z" stroke="white" stroke-linecap="round" stroke-linejoin="round"/>
<ellipse cx="14.1667" cy="5.83334" rx="2.5" ry="2.5" fill="#FF6B2C"/>
</svg>
