<svg width="20.000000" height="20.000000" viewBox="0 0 20 20" fill="none" xmlns="http://www.w3.org/2000/svg" xmlns:xlink="http://www.w3.org/1999/xlink">
	<desc>
			Created with Pixso.
	</desc>
	<defs>
		<clipPath id="clip7_865">
			<rect id="fi-rr-play" width="20.000000" height="20.000000" fill="white" fill-opacity="0"/>
		</clipPath>
	</defs>
	<rect id="fi-rr-play" width="20.000000" height="20.000000" fill="#000000" fill-opacity="0"/>
	<g clip-path="url(#clip7_865)">
		<path id="Vector" d="M17.0784 6.63969L9.1283 0.806366C8.50745 0.351685 7.77271 0.0778503 7.00562 0.0152435C6.23865 -0.0473633 5.46924 0.103699 4.78271 0.45166C4.09631 0.799622 3.51965 1.3309 3.1167 1.9866C2.71375 2.64229 2.50037 3.39676 2.5 4.16637L2.5 15.833C2.50012 16.603 2.71362 17.3578 3.1167 18.0138C3.5199 18.6698 4.0968 19.2012 4.78369 19.5492C5.47058 19.8972 6.24036 20.048 7.00769 19.985C7.77502 19.922 8.51001 19.6475 9.13086 19.1922L17.0808 13.3589C17.6085 12.9719 18.0377 12.466 18.3335 11.8822C18.6293 11.2985 18.7834 10.6533 18.7834 9.99886C18.7834 9.34445 18.6293 8.69923 18.3335 8.11548C18.0377 7.53172 17.6085 7.02586 17.0808 6.63885L17.0784 6.63969ZM16.0917 12.0147L8.14172 17.848C7.76917 18.1202 7.32861 18.284 6.86877 18.3213C6.40894 18.3586 5.94775 18.268 5.53625 18.0594C5.12476 17.8508 4.77905 17.5324 4.53735 17.1395C4.29565 16.7465 4.16736 16.2944 4.16663 15.833L4.16663 4.16637C4.16199 3.70415 4.28796 3.25002 4.52979 2.85612C4.77173 2.46225 5.11987 2.14461 5.53418 1.9397C5.8866 1.76044 6.27625 1.66679 6.67163 1.66637C7.20154 1.66838 7.7168 1.84044 8.14172 2.1572L16.0917 7.99052C16.408 8.22278 16.665 8.5262 16.8423 8.87625C17.0195 9.2263 17.1118 9.61316 17.1118 10.0055C17.1118 10.3979 17.0195 10.7847 16.8423 11.1348C16.665 11.4849 16.408 11.7883 16.0917 12.0205L16.0917 12.0147Z" fill="#B049E1" fill-opacity="1.000000" fill-rule="nonzero"/>
	</g>
</svg>
