<svg width="40.000000" height="40.000000" viewBox="0 0 40 40" fill="none" xmlns="http://www.w3.org/2000/svg" xmlns:xlink="http://www.w3.org/1999/xlink">
	<desc>
			Created with Pixso.
	</desc>
	<defs>
		<clipPath id="clip7_611">
			<rect id="fi-rs-following" width="40.000000" height="40.000000" fill="white" fill-opacity="0"/>
		</clipPath>
	</defs>
	<rect id="fi-rs-following" width="40.000000" height="40.000000" fill="#FFFFFF" fill-opacity="0"/>
	<g clip-path="url(#clip7_611)">
		<path id="Vector" d="M14.9999 19.9999C13.0221 19.9999 11.0886 19.4134 9.44421 18.3146C7.79968 17.2158 6.51794 15.654 5.76111 13.8267C5.00415 11.9995 4.80615 9.9888 5.19202 8.04898C5.57788 6.10916 6.53027 4.32733 7.92883 2.9288C9.32739 1.5303 11.1091 0.577881 13.049 0.192017C14.9888 -0.193817 16.9995 0.00421143 18.8267 0.761078C20.6539 1.51797 22.2158 2.79968 23.3146 4.44418C24.4133 6.08868 24.9999 8.02206 24.9999 9.99988C24.9972 12.6512 23.9429 15.1932 22.068 17.068C20.1932 18.9428 17.6512 19.9972 14.9999 19.9999ZM14.9999 3.33322C13.6814 3.33322 12.3925 3.72421 11.296 4.45676C10.1997 5.1893 9.34521 6.2305 8.8407 7.44867C8.33606 8.66684 8.2041 10.0073 8.4613 11.3005C8.71851 12.5937 9.35352 13.7816 10.2859 14.7139C11.2181 15.6463 12.4061 16.2812 13.6993 16.5385C14.9924 16.7957 16.3329 16.6637 17.5511 16.1591C18.7693 15.6545 19.8104 14.8 20.543 13.7037C21.2755 12.6074 21.6665 11.3184 21.6665 9.99988C21.6665 8.23178 20.9641 6.53607 19.7139 5.28583C18.4636 4.03558 16.7679 3.33322 14.9999 3.33322Z" fill="#111111" fill-opacity="1.000000" fill-rule="nonzero"/>
		<path id="Vector" d="M30 39.9994L26.6666 39.9994L26.6666 31.5945C26.6649 30.2879 26.1451 29.0354 25.2212 28.1115C24.2974 27.1877 23.0449 26.6679 21.7383 26.6661L8.26172 26.6661C6.95508 26.6679 5.70264 27.1877 4.77881 28.1115C3.85486 29.0354 3.33508 30.2879 3.33337 31.5945L3.33337 39.9994L0 39.9994L0 31.5945C0.00268555 29.4041 0.873901 27.3043 2.42273 25.7555C3.97156 24.2067 6.07129 23.3354 8.26172 23.3328L21.7383 23.3328C23.9287 23.3354 26.0286 24.2067 27.5773 25.7555C29.1261 27.3043 29.9973 29.4041 30 31.5945L30 39.9994Z" fill="#111111" fill-opacity="1.000000" fill-rule="nonzero"/>
		<path id="Vector" d="M36.6664 13.125C35.7389 13.1712 34.8674 13.5829 34.2427 14.2701C33.618 14.9573 33.291 15.8639 33.3331 16.7917C33.3752 15.8639 33.0482 14.9573 32.4235 14.2701C31.7988 13.5829 30.9274 13.1712 29.9998 13.125C29.0723 13.1712 28.2008 13.5829 27.576 14.2701C26.9514 14.9573 26.6243 15.8639 26.6665 16.7917C26.6665 20.625 33.3331 25.3467 33.3331 25.3467C33.3331 25.3467 39.9998 20.6317 39.9998 16.7917C40.0419 15.8639 39.7148 14.9573 39.0901 14.2701C38.4655 13.5829 37.594 13.1712 36.6664 13.125Z" fill="#FF91CD" fill-opacity="1.000000" fill-rule="nonzero"/>
	</g>
</svg>
