<svg width="19" height="20" viewBox="0 0 19 20" fill="none" xmlns="http://www.w3.org/2000/svg">
<path d="M16.8115 0C15.627 0 14.6667 0.927344 14.6667 2.07129V8.25156H18.3497C18.6847 8.25156 18.9564 7.98922 18.9564 7.66563V2.07129C18.9564 0.927344 17.9961 0 16.8115 0V0Z" fill="#FF82AC"/>
<path d="M6.7977 14.7266C6.7977 11.187 9.77931 8.27176 13.4937 8.28152V2.32367C13.4937 1.43238 13.8411 0.618086 14.4118 0H3.71012C2.03792 0 0.677185 1.31406 0.677185 2.92891V19.4035C0.677185 19.9306 1.34489 20.1896 1.72241 19.8086L2.49865 19.0258L3.31857 19.818C3.5552 20.0465 3.93947 20.0465 4.17651 19.818L4.95355 19.068L5.73828 19.8195C5.97491 20.0461 6.35636 20.0461 6.59299 19.8195L7.39026 19.0562L8.18793 19.8195C8.42416 20.0461 8.80519 20.0461 9.04183 19.8199L9.19635 19.6723C7.69193 18.4576 6.7977 16.6616 6.7977 14.7266ZM5.58562 4.72656H6.7831V3.57016C6.7831 3.24656 7.05476 2.98422 7.38985 2.98422C7.72494 2.98422 7.9966 3.24656 7.9966 3.57016V4.72656H9.19408C9.52917 4.72656 9.80083 4.98891 9.80083 5.3125C9.80083 5.63609 9.52917 5.89844 9.19408 5.89844H7.9966V7.05484C7.9966 7.37844 7.72494 7.64078 7.38985 7.64078C7.05476 7.64078 6.7831 7.37844 6.7831 7.05484V5.89844H5.58562C5.25054 5.89844 4.97887 5.63609 4.97887 5.3125C4.97887 4.98891 5.25054 4.72656 5.58562 4.72656ZM3.74932 8.83008H7.8348C8.16989 8.83008 8.44155 9.09242 8.44155 9.41602C8.44155 9.73961 8.16989 10.002 7.8348 10.002H3.74932C3.41423 10.002 3.14257 9.73961 3.14257 9.41602C3.14257 9.09242 3.41423 8.83008 3.74932 8.83008ZM5.77384 14.6855H3.74527C3.41018 14.6855 3.13852 14.4232 3.13852 14.0996C3.13852 13.776 3.41018 13.5137 3.74527 13.5137H5.77384C6.10892 13.5137 6.38058 13.776 6.38058 14.0996C6.38058 14.4232 6.10892 14.6855 5.77384 14.6855ZM6.17838 12.3457H3.74725C3.41217 12.3457 3.14051 12.0834 3.14051 11.7598C3.14051 11.4362 3.41217 11.1738 3.74725 11.1738H6.17838C6.51346 11.1738 6.78512 11.4362 6.78512 11.7598C6.78512 12.0834 6.51346 12.3457 6.17838 12.3457Z" fill="#FF82AC"/>
<path d="M13.4719 9.45312C10.4609 9.45312 8.01117 11.8188 8.01117 14.7266C8.01117 17.6343 10.4609 20 13.4719 20C16.483 20 18.9327 17.6343 18.9327 14.7266C18.9327 11.8188 16.483 9.45312 13.4719 9.45312ZM14.0806 16.9832V17.0389C14.0806 17.3625 13.8089 17.6248 13.4738 17.6248C13.1387 17.6248 12.8671 17.3625 12.8671 17.0389V17.0289C12.5953 16.9664 12.3431 16.863 12.1432 16.7367C11.8627 16.5595 11.7841 16.1964 11.9676 15.9255C12.1511 15.6547 12.5271 15.5788 12.8075 15.756C13.0558 15.9129 13.4652 15.9725 13.6664 15.8811C13.7968 15.8218 13.8976 15.6954 13.9117 15.5736C13.9417 15.3141 13.5208 15.1694 13.2695 15.0735C12.8892 14.9285 12.4158 14.7479 12.1411 14.2689C11.7494 13.5861 12.0924 12.6858 12.8671 12.3779V12.3484C12.8671 12.0248 13.1387 11.7625 13.4738 11.7625C13.8056 11.7625 14.0748 12.0198 14.0801 12.3389C14.2985 12.4048 14.4997 12.5103 14.6607 12.6538C14.9071 12.8732 14.9226 13.2439 14.6954 13.4818C14.4682 13.7197 14.0843 13.7346 13.838 13.5152C13.7382 13.4263 13.4306 13.3904 13.2969 13.4771C13.207 13.5354 13.1718 13.6473 13.2026 13.7009C13.3307 13.9243 14.0018 14.0009 14.5096 14.3831C15.5471 15.1638 15.1861 16.5736 14.0806 16.9832Z" fill="#FF82AC"/>
</svg>
