<svg width="30.000000" height="30.000000" viewBox="0 0 30 30" fill="none" xmlns="http://www.w3.org/2000/svg" xmlns:xlink="http://www.w3.org/1999/xlink">
	<desc>
			Created with Pixso.
	</desc>
	<defs>
		<clipPath id="clip7_884">
			<rect id="fi-rr-spinner-alt" width="30.000000" height="30.000000" fill="white" fill-opacity="0"/>
		</clipPath>
	</defs>
	<rect id="fi-rr-spinner-alt" width="30.000000" height="30.000000" fill="#FFFFFF" fill-opacity="0"/>
	<g clip-path="url(#clip7_884)">
		<path id="Vector" d="M16.25 1.25L16.25 3.75C16.25 4.08152 16.1183 4.39946 15.8839 4.63388C15.6495 4.8683 15.3315 5 15 5C14.6685 5 14.3505 4.8683 14.1161 4.63388C13.8817 4.39946 13.75 4.08152 13.75 3.75L13.75 1.25C13.75 0.91848 13.8817 0.60054 14.1161 0.366119C14.3505 0.131699 14.6685 0 15 0C15.3315 0 15.6495 0.131699 15.8839 0.366119C16.1183 0.60054 16.25 0.91848 16.25 1.25ZM15 25C14.6685 25 14.3505 25.1317 14.1161 25.3661C13.8817 25.6005 13.75 25.9185 13.75 26.25L13.75 28.75C13.75 29.0815 13.8817 29.3995 14.1161 29.6339C14.3505 29.8683 14.6685 30 15 30C15.3315 30 15.6495 29.8683 15.8839 29.6339C16.1183 29.3995 16.25 29.0815 16.25 28.75L16.25 26.25C16.25 25.9185 16.1183 25.6005 15.8839 25.3661C15.6495 25.1317 15.3315 25 15 25ZM5 15C5 14.6685 4.86829 14.3505 4.63391 14.1161C4.39948 13.8817 4.08154 13.75 3.75 13.75L1.25 13.75C0.918457 13.75 0.600525 13.8817 0.366089 14.1161C0.131714 14.3505 0 14.6685 0 15C0 15.3315 0.131714 15.6495 0.366089 15.8839C0.600525 16.1183 0.918457 16.25 1.25 16.25L3.75 16.25C4.08154 16.25 4.39948 16.1183 4.63391 15.8839C4.86829 15.6495 5 15.3315 5 15ZM28.75 13.75L26.25 13.75C25.9185 13.75 25.6005 13.8817 25.3661 14.1161C25.1317 14.3505 25 14.6685 25 15C25 15.3315 25.1317 15.6495 25.3661 15.8839C25.6005 16.1183 25.9185 16.25 26.25 16.25L28.75 16.25C29.0815 16.25 29.3995 16.1183 29.6339 15.8839C29.8683 15.6495 30 15.3315 30 15C30 14.6685 29.8683 14.3505 29.6339 14.1161C29.3995 13.8817 29.0815 13.75 28.75 13.75ZM22.5225 2.0225C22.3804 1.94013 22.2235 1.88656 22.0608 1.86485C21.898 1.84313 21.7325 1.85371 21.5739 1.89596C21.4152 1.93821 21.2664 2.01132 21.1359 2.1111C21.0055 2.21088 20.8961 2.33539 20.8137 2.4775L19.5637 4.64125C19.3979 4.9282 19.3528 5.26926 19.4384 5.58946C19.5239 5.90966 19.7331 6.18278 20.02 6.34875C20.2096 6.45963 20.4254 6.51788 20.645 6.5175C20.8644 6.51749 21.08 6.45973 21.27 6.35002C21.46 6.24031 21.6178 6.08252 21.7275 5.8925L22.9775 3.72875C23.1431 3.44207 23.1882 3.10141 23.1028 2.78153C23.0175 2.46165 22.8088 2.18867 22.5225 2.0225ZM9.98376 23.6512C9.69696 23.4853 9.35602 23.44 9.03583 23.5253C8.71564 23.6106 8.44244 23.8196 8.27625 24.1062L7.02625 26.27C6.86029 26.5568 6.815 26.8978 6.90033 27.2179C6.98566 27.5381 7.19458 27.8113 7.48126 27.9775C7.6709 28.0883 7.8866 28.1465 8.10626 28.1462C8.32587 28.1465 8.54169 28.0888 8.73193 27.9791C8.92218 27.8694 9.0802 27.7115 9.19 27.5213L10.44 25.3575C10.6055 25.0707 10.6503 24.7299 10.5648 24.41C10.4792 24.0901 10.2703 23.8172 9.98376 23.6512ZM5.89374 8.27625L3.72998 7.02625C3.44379 6.87224 3.10889 6.83575 2.79626 6.92451C2.48364 7.01326 2.21783 7.22029 2.0553 7.5017C1.8927 7.78311 1.84613 8.11677 1.92542 8.43195C2.0047 8.74712 2.20361 9.01901 2.47998 9.19L4.64374 10.44C4.92993 10.594 5.26483 10.6305 5.57751 10.5417C5.89014 10.453 6.15588 10.246 6.31848 9.96455C6.48102 9.68314 6.52765 9.34948 6.4483 9.03431C6.36902 8.71913 6.1701 8.44724 5.89374 8.27625ZM27.5187 20.8138L25.355 19.5638C25.0688 19.4097 24.7339 19.3732 24.4213 19.462C24.1086 19.5508 23.8428 19.7578 23.6803 20.0392C23.5177 20.3206 23.4711 20.6543 23.5504 20.9694C23.6297 21.2846 23.8286 21.5565 24.105 21.7275L26.2687 22.9775C26.4584 23.0884 26.6741 23.1466 26.8937 23.1462C27.1689 23.1462 27.4364 23.0554 27.6547 22.8879C27.873 22.7204 28.0299 22.4856 28.1011 22.2198C28.1723 21.954 28.1539 21.6721 28.0486 21.4179C27.9432 21.1637 27.757 20.9513 27.5187 20.8138ZM9.18628 2.4775C9.01526 2.20113 8.74335 2.0022 8.42822 1.92292C8.11304 1.84363 7.77936 1.89021 7.49792 2.05278C7.21655 2.21535 7.00952 2.48112 6.92078 2.79376C6.83197 3.1064 6.86847 3.44131 7.02252 3.7275L8.27252 5.89125C8.3822 6.08127 8.53998 6.23907 8.73004 6.34877C8.92004 6.45848 9.13556 6.51624 9.35498 6.51625C9.57465 6.51663 9.79041 6.45838 9.97998 6.3475C10.2669 6.18153 10.4761 5.90842 10.5616 5.58821C10.6472 5.26801 10.6021 4.92695 10.4363 4.64L9.18628 2.4775ZM21.7238 24.1025C21.5527 23.8261 21.2809 23.6272 20.9657 23.5479C20.6505 23.4686 20.3168 23.5152 20.0355 23.6778C19.754 23.8403 19.547 24.1061 19.4583 24.4188C19.3695 24.7314 19.406 25.0663 19.56 25.3525L20.81 27.5163C20.981 27.7926 21.2529 27.9915 21.5681 28.0708C21.8832 28.1501 22.2169 28.1035 22.4983 27.941C22.7797 27.7784 22.9868 27.5126 23.0755 27.2C23.1642 26.8873 23.1277 26.5524 22.9738 26.2663L21.7238 24.1025ZM24.7338 10.6025C24.9532 10.6025 25.1687 10.5447 25.3588 10.435L27.5225 9.185C27.7989 9.01402 27.9978 8.74211 28.0771 8.42694C28.1564 8.11177 28.1098 7.77811 27.9472 7.4967C27.7847 7.21529 27.5189 7.00826 27.2062 6.9195C26.8936 6.83075 26.5587 6.86724 26.2725 7.02125L24.1088 8.27125C23.8711 8.40912 23.6855 8.62144 23.5806 8.8754C23.4757 9.12936 23.4575 9.4108 23.5286 9.67619C23.5997 9.94158 23.7563 10.1761 23.9742 10.3436C24.192 10.511 24.459 10.602 24.7338 10.6025ZM4.64124 19.56L2.47748 20.81C2.2392 20.9476 2.05298 21.16 1.94769 21.4142C1.84241 21.6684 1.82391 21.9502 1.89514 22.216C1.96637 22.4818 2.12329 22.7167 2.34155 22.8842C2.55988 23.0517 2.82733 23.1425 3.10248 23.1425C3.32214 23.1429 3.5379 23.0846 3.72748 22.9737L5.89124 21.7237C6.1676 21.5528 6.36652 21.2809 6.44586 20.9657C6.52515 20.6505 6.47852 20.3169 6.31598 20.0354C6.15338 19.754 5.88763 19.547 5.57501 19.4583C5.26233 19.3695 4.92743 19.406 4.64124 19.56Z" fill="#13DB01" fill-opacity="1.000000" fill-rule="nonzero"/>
	</g>
</svg>
