<svg width="70" height="48" viewBox="0 0 70 48" fill="none" xmlns="http://www.w3.org/2000/svg">
<rect width="70" height="48" rx="4" fill="#E8F4FF"/>
<path d="M21.6555 10.0016H32.687C34.2269 10.0016 35.1847 11.2567 34.8255 12.8018L29.6895 34.8525C29.327 36.3921 27.7853 37.6484 26.2443 37.6484H15.2138C13.676 37.6484 12.7161 36.3921 13.0754 34.8525L18.2135 12.8018C18.5727 11.2567 20.1137 10.0016 21.6555 10.0016Z" fill="#E21836"/>
<path d="M31.7684 10H44.4544C45.9941 10 45.2998 11.2552 44.9376 12.8002L39.8025 34.8509C39.4422 36.3905 39.5546 37.6468 38.0117 37.6468H25.3257C23.7828 37.6468 22.828 36.3905 23.1905 34.8509L28.3254 12.8002C28.69 11.2552 30.2277 10 31.7684 10Z" fill="#00447C"/>
<path d="M43.9515 10H54.9831C56.5251 10 57.4829 11.2552 57.1207 12.8002L51.9855 34.8509C51.6231 36.3905 50.0802 37.6468 48.5384 37.6468H37.512C35.9691 37.6468 35.0122 36.3905 35.3735 34.8509L40.5095 12.8002C40.8687 11.2552 42.4087 10 43.9515 10Z" fill="#007B84"/>
<path d="M24.536 17.0665C23.4015 17.0781 23.0665 17.0665 22.9595 17.0412C22.9183 17.2367 22.1528 20.768 22.1507 20.771C21.9859 21.4854 21.8659 21.9946 21.4586 22.3235C21.2273 22.5147 20.9574 22.6069 20.6444 22.6069C20.1413 22.6069 19.8482 22.3571 19.799 21.8833L19.7896 21.7207C19.7896 21.7207 19.9429 20.7637 19.9429 20.7583C19.9429 20.7583 20.7463 17.5403 20.8901 17.1149C20.8977 17.0907 20.8998 17.0781 20.9017 17.0665C19.3379 17.0802 19.0606 17.0665 19.0416 17.0412C19.0311 17.0759 18.9924 17.2754 18.9924 17.2754L18.172 20.9024L18.1015 21.21L17.9652 22.2162C17.9652 22.5147 18.0238 22.7583 18.1405 22.9642C18.5143 23.6174 19.5804 23.7152 20.1835 23.7152C20.9606 23.7152 21.6895 23.5501 22.1821 23.2487C23.0372 22.7435 23.2609 21.9538 23.4604 21.252L23.5529 20.892C23.5529 20.892 24.3805 17.5497 24.5212 17.1149C24.5265 17.0907 24.5287 17.0781 24.536 17.0665ZM27.3519 19.7627C27.1524 19.7627 26.7878 19.8111 26.4603 19.9717C26.3414 20.0327 26.229 20.1031 26.1105 20.1733L26.2175 19.7869L26.1589 19.7219C25.4643 19.8625 25.3089 19.8813 24.6674 19.9717L24.6136 20.0074C24.5391 20.6251 24.473 21.0894 24.1968 22.3034C24.0917 22.7509 23.9825 23.2026 23.8731 23.6489L23.9027 23.7057C24.5601 23.671 24.7596 23.671 25.331 23.6804L25.3772 23.6301C25.4498 23.2582 25.4592 23.1711 25.62 22.418C25.6956 22.0609 25.8531 21.2763 25.9309 20.9969C26.0736 20.9308 26.2145 20.8657 26.349 20.8657C26.6692 20.8657 26.6302 21.1451 26.6179 21.2564C26.6041 21.4433 26.4874 22.0536 26.3678 22.5777L26.2879 22.916C26.2323 23.1658 26.1712 23.4086 26.1156 23.6562L26.1398 23.7057C26.7878 23.671 26.9854 23.671 27.5388 23.6804L27.6039 23.6301C27.7039 23.0493 27.7332 22.8939 27.9107 22.0483L27.9999 21.6597C28.1734 20.8993 28.2605 20.5137 28.1293 20.1997C27.9905 19.8477 27.6576 19.7627 27.3519 19.7627ZM30.4977 20.5589C30.1532 20.625 29.9335 20.6691 29.7152 20.6976C29.4987 20.7323 29.2877 20.7638 28.9548 20.81L28.9284 20.834L28.9042 20.853C28.8696 21.101 28.8454 21.3153 28.7994 21.5672C28.7604 21.8278 28.7004 22.1238 28.6028 22.5492C28.5273 22.8748 28.4883 22.9883 28.4453 23.1028C28.4033 23.2174 28.3571 23.3287 28.2721 23.6489L28.292 23.6785L28.3087 23.7056C28.6198 23.6909 28.8233 23.6804 29.0325 23.6785C29.2414 23.671 29.4579 23.6785 29.7929 23.6804L29.8222 23.6564L29.8537 23.6301C29.9021 23.3413 29.9093 23.2636 29.9389 23.1227C29.9682 22.9716 30.0188 22.7624 30.1427 22.2037C30.2013 21.9412 30.2667 21.6796 30.3274 21.4118C30.3906 21.1451 30.4568 20.8824 30.5197 20.6199L30.5103 20.5882L30.4977 20.5589ZM30.505 19.4854C30.192 19.3007 29.6427 19.3593 29.273 19.6145C28.9043 19.8646 28.8624 20.2195 29.1743 20.4066C29.4819 20.5863 30.0334 20.5327 30.3999 20.2754C30.7677 20.02 30.8137 19.6683 30.505 19.4854ZM32.3978 23.7635C33.031 23.7635 33.6801 23.589 34.1687 23.0712C34.5446 22.6512 34.7169 22.0263 34.7766 21.7689C34.971 20.916 34.8197 20.5178 34.6296 20.2753C34.3408 19.9056 33.8304 19.787 33.301 19.787C32.9826 19.787 32.2244 19.8185 31.632 20.3646C31.2066 20.7585 31.0101 21.293 30.8915 21.8055C30.7719 22.3277 30.6342 23.2677 31.4987 23.6175C31.7654 23.7321 32.1499 23.7635 32.3978 23.7635ZM32.3483 21.8445C32.4943 21.1986 32.6667 20.6566 33.1066 20.6566C33.4513 20.6566 33.4763 21.0599 33.323 21.7079C33.2956 21.8518 33.1698 22.3866 32.9996 22.6143C32.8807 22.7824 32.7401 22.8843 32.5847 22.8843C32.5384 22.8843 32.2634 22.8843 32.2591 22.4758C32.2569 22.2742 32.2981 22.0682 32.3483 21.8445ZM36.3596 23.6805L36.409 23.6302C36.4792 23.2583 36.4908 23.1709 36.6462 22.4181C36.7239 22.061 36.8847 21.2764 36.9603 20.997C37.1033 20.9306 37.2418 20.8655 37.3805 20.8655C37.6986 20.8655 37.6599 21.1449 37.6473 21.2562C37.6357 21.4434 37.519 22.0535 37.3972 22.5775L37.3216 22.9158C37.2638 23.1658 37.2009 23.4084 37.1452 23.6563L37.1694 23.7058C37.8196 23.6711 38.0097 23.6711 38.5663 23.6805L38.6335 23.6302C38.7311 23.0491 38.7575 22.8937 38.9403 22.0483L39.0274 21.6595C39.2017 20.8991 39.2899 20.5138 39.1608 20.1998C39.018 19.8478 38.683 19.7628 38.3816 19.7628C38.1818 19.7628 37.8153 19.811 37.4897 19.9717C37.3733 20.0328 37.2566 20.103 37.142 20.1734L37.2418 19.787L37.1883 19.7217C36.494 19.8626 36.3354 19.8814 35.6946 19.9717L35.6454 20.0075C35.5677 20.6251 35.5045 21.0892 35.2284 22.3035C35.1232 22.7509 35.0141 23.2027 34.9049 23.649L34.9342 23.7058C35.5927 23.6711 35.7893 23.6711 36.3596 23.6805ZM41.1364 23.7056C41.1773 23.5061 41.4201 22.3235 41.4223 22.3235C41.4223 22.3235 41.629 21.4559 41.6417 21.4244C41.6417 21.4244 41.7068 21.3341 41.7718 21.2983H41.8675C42.7707 21.2983 43.7906 21.2983 44.59 20.7102C45.134 20.3069 45.5058 19.7113 45.6717 18.9875C45.7148 18.81 45.7465 18.599 45.7465 18.3879C45.7465 18.1107 45.6908 17.8364 45.53 17.6221C45.1224 17.0518 44.3106 17.0413 43.3736 17.037C43.3706 17.037 42.9116 17.0413 42.9116 17.0413C41.7121 17.0561 41.2311 17.0518 41.0335 17.0276C41.0168 17.115 40.9853 17.2704 40.9853 17.2704C40.9853 17.2704 40.5557 19.2618 40.5557 19.265C40.5557 19.265 39.5274 23.4988 39.479 23.6984C40.5263 23.6857 40.9558 23.6857 41.1364 23.7056ZM41.9326 20.1682C41.9326 20.1682 42.3895 18.1808 42.3873 18.1884L42.4021 18.0865L42.4085 18.0087L42.5911 18.0276C42.5911 18.0276 43.5333 18.1085 43.5553 18.1107C43.9272 18.2545 44.0805 18.6253 43.9735 19.1093C43.8758 19.5516 43.5889 19.9235 43.2203 20.1031C42.9167 20.2553 42.5449 20.2679 42.1617 20.2679H41.9138L41.9326 20.1682ZM44.777 21.8813C44.6563 22.396 44.5175 23.336 45.3777 23.671C45.6519 23.7877 45.8977 23.8224 46.1475 23.8098C46.4113 23.7955 46.6557 23.6632 46.8821 23.4728C46.8617 23.5511 46.8412 23.6293 46.8208 23.7079L46.8598 23.7581C47.4785 23.7321 47.6705 23.7321 48.3408 23.7372L48.4016 23.6909C48.4994 23.1155 48.5917 22.5568 48.846 21.4559C48.97 20.9287 49.0937 20.4065 49.2209 19.8813L49.201 19.8235C48.5088 19.9518 48.3239 19.9792 47.6581 20.0736L47.6075 20.1147C47.6008 20.1682 47.5938 20.2196 47.5874 20.271C47.4839 20.1037 47.3338 19.9609 47.1023 19.8719C46.8063 19.7555 46.1109 19.9055 45.5132 20.4498C45.0932 20.8383 44.8915 21.3707 44.777 21.8813ZM46.2306 21.9128C46.3787 21.2785 46.5489 20.7418 46.9899 20.7418C47.2687 20.7418 47.4156 20.9991 47.3857 21.4379C47.3621 21.5474 47.3365 21.6627 47.3061 21.7931C47.262 21.9816 47.2142 22.1685 47.1676 22.3556C47.1203 22.4836 47.0652 22.6043 47.0047 22.6847C46.8912 22.8455 46.6213 22.9453 46.4659 22.9453C46.4218 22.9453 46.1496 22.9453 46.1402 22.5441C46.1381 22.3443 46.1792 22.1386 46.2306 21.9128ZM53.8213 19.8184L53.7678 19.7574C53.083 19.8961 52.959 19.9182 52.3298 20.0031L52.2836 20.0494C52.2814 20.0569 52.2796 20.0685 52.2763 20.079L52.2742 20.0685C51.8058 21.1491 51.8195 20.916 51.4382 21.7667C51.4361 21.728 51.4361 21.7038 51.4339 21.6627L51.3385 19.8184L51.2785 19.7574C50.5611 19.8961 50.5442 19.9182 49.8816 20.0031L49.83 20.0494C49.8228 20.0714 49.8228 20.0956 49.8185 20.122L49.8228 20.1314C49.9056 20.5546 49.8857 20.4602 49.9688 21.1281C50.0075 21.4559 50.0591 21.7856 50.0978 22.1093C50.1632 22.6511 50.1997 22.9178 50.2796 23.7447C49.8322 24.483 49.7262 24.7624 49.2955 25.4104L49.2984 25.4169L48.9951 25.8965C48.9604 25.9471 48.929 25.9818 48.8849 25.9966C48.8365 26.0205 48.7736 26.0248 48.6862 26.0248H48.5181L48.2683 26.8557L49.1253 26.8705C49.6283 26.8683 49.9446 26.633 50.1148 26.3168L50.6536 25.3935H50.645L50.7017 25.3284C51.0642 24.5481 53.8213 19.8184 53.8213 19.8184ZM44.777 30.7304H44.4134L45.7589 26.2801H46.2053L46.347 25.8217L46.3607 26.3315C46.344 26.6466 46.5919 26.926 47.2432 26.8797H47.9963L48.2555 26.0228H47.9721C47.8092 26.0228 47.7336 25.9817 47.743 25.8935L47.7293 25.3748H46.3346V25.3775C45.8837 25.3869 44.5371 25.4208 44.2645 25.4934C43.9345 25.5783 43.5869 25.8284 43.5869 25.8284L43.7235 25.3694H42.4188L42.147 26.2801L40.7835 30.7985H40.5189L40.2594 31.6492H42.8579L42.7708 31.9329H44.0512L44.1362 31.6492H44.4954L44.777 30.7304ZM43.7108 27.1844C43.5019 27.2422 43.1131 27.4175 43.1131 27.4175L43.4589 26.2801H44.4954L44.2454 27.1088C44.2454 27.1088 43.9251 27.1276 43.7108 27.1844ZM43.7307 28.8092C43.7307 28.8092 43.4051 28.8501 43.1908 28.8985C42.9797 28.9625 42.5839 29.1642 42.5839 29.1642L42.941 27.9805H43.9829L43.7307 28.8092ZM43.1499 30.7409H42.1102L42.4116 29.742H43.4481L43.1499 30.7409ZM45.654 27.9805H47.1527L46.9373 28.678H45.4187L45.1907 29.4406H46.5195L45.5133 30.8573C45.4429 30.9614 45.3797 30.9982 45.3095 31.0275C45.2391 31.0633 45.1466 31.1053 45.0396 31.1053H44.6709L44.4176 31.9404H45.3818C45.883 31.9404 46.1791 31.7124 46.3977 31.4131L47.0877 30.4688L47.2358 31.4277C47.2673 31.6073 47.3963 31.7124 47.4837 31.7533C47.5803 31.8017 47.68 31.8848 47.8209 31.8971C47.972 31.9036 48.0812 31.9087 48.1538 31.9087H48.6276L48.912 30.974H48.7252C48.6179 30.974 48.4332 30.956 48.4017 30.9224C48.3702 30.8815 48.3702 30.8186 48.3533 30.7229L48.203 29.7619H47.5875L47.8575 29.4406H49.3732L49.6063 28.678H48.203L48.4216 27.9805H49.8206L50.0801 27.1204H45.9091L45.654 27.9805ZM32.9953 30.9351L33.3451 29.7714H34.7829L35.0456 28.9059H33.6065L33.8262 28.1895H35.2325L35.493 27.3514H31.9744L31.7192 28.1895H32.5186L32.3054 28.9059H31.5038L31.2382 29.7862H32.0373L31.571 31.3258C31.5081 31.5296 31.6006 31.6073 31.6592 31.702C31.7192 31.7942 31.78 31.8553 31.9166 31.8899C32.0575 31.9214 32.154 31.9402 32.2852 31.9402H33.906L34.1948 30.9814L33.4764 31.0801C33.3376 31.0801 32.9534 31.0634 32.9953 30.9351ZM33.1602 25.3642L32.7959 26.0227C32.7179 26.1665 32.6477 26.2558 32.5846 26.2969C32.5289 26.3316 32.4186 26.3461 32.2589 26.3461H32.0688L31.8147 27.1885H32.4461C32.7496 27.1885 32.9828 27.0772 33.0941 27.0216C33.2137 26.9576 33.2452 26.9941 33.3377 26.9049L33.5509 26.7201H35.5224L35.784 25.843H34.3409L34.5929 25.3642H33.1602ZM36.0708 30.952C36.0371 30.9036 36.0613 30.8184 36.1127 30.6409L36.6515 28.8574H38.5684C38.8478 28.8534 39.0495 28.8502 39.1807 28.8408C39.3216 28.826 39.4748 28.7757 39.6418 28.6853C39.8142 28.5907 39.9024 28.4909 39.9769 28.3764C40.0599 28.2621 40.1933 28.0121 40.3078 27.6265L40.9852 25.3695L38.996 25.381C38.996 25.381 38.3834 25.4714 38.1137 25.5711C37.8416 25.6824 37.4528 25.9933 37.4528 25.9933L37.6324 25.3746H36.4036L34.6833 31.08C34.6223 31.3016 34.5814 31.4624 34.572 31.5589C34.5688 31.663 34.7032 31.766 34.7903 31.8437C34.8933 31.9214 35.0455 31.9087 35.1915 31.9214C35.345 31.9329 35.5634 31.9402 35.8648 31.9402H36.8091L37.099 30.9615L36.2536 31.0413C36.1633 31.0413 36.0979 30.9929 36.0708 30.952ZM36.9992 27.6528H39.0126L38.8846 28.054C38.8666 28.0634 38.8236 28.0341 38.6187 28.0583H36.8753L36.9992 27.6528ZM37.4025 26.3073H39.4329L39.2869 26.7905C39.2869 26.7905 38.3299 26.7811 38.1767 26.8093C37.5023 26.926 37.1084 27.2863 37.1084 27.2863L37.4025 26.3073ZM38.9297 29.3974C38.913 29.4574 38.8867 29.494 38.8498 29.5214C38.809 29.5477 38.7428 29.5572 38.6441 29.5572H38.3572L38.3742 29.0686H37.1809L37.1325 31.4571C37.1306 31.6294 37.1473 31.7292 37.2734 31.8091C37.3995 31.9088 37.788 31.9215 38.311 31.9215H39.0588L39.3287 31.0274L38.6778 31.0632L38.4613 31.0758C38.4317 31.0632 38.4035 31.0516 38.372 31.0202C38.3446 30.993 38.2984 31.0097 38.3059 30.8373L38.311 30.2251L38.9937 30.1968C39.3623 30.1968 39.5199 30.0769 39.6544 29.9626C39.7826 29.8532 39.8246 29.7274 39.873 29.5572L39.9875 29.0151H39.0494L38.9297 29.3974Z" fill="#FEFEFE"/>
</svg>
