<svg width="70" height="48" viewBox="0 0 70 48" fill="none" xmlns="http://www.w3.org/2000/svg">
<rect width="70" height="48" rx="4" fill="#EFFFFB"/>
<path fill-rule="evenodd" clip-rule="evenodd" d="M24.9185 10.298L19.1176 22.4828C19.0955 22.5281 19.0885 22.5793 19.0976 22.6289C19.1067 22.6785 19.1315 22.7239 19.1682 22.7584L34.835 37.771C34.8795 37.8137 34.9388 37.8375 35.0005 37.8375C35.0621 37.8375 35.1214 37.8137 35.1659 37.771L50.8327 22.7593C50.8695 22.7248 50.8942 22.6794 50.9033 22.6299C50.9124 22.5803 50.9054 22.5291 50.8833 22.4838L45.0824 10.299C45.0637 10.2581 45.0336 10.2234 44.9957 10.1991C44.9578 10.1749 44.9137 10.162 44.8687 10.1621H25.1341C25.0889 10.1616 25.0444 10.1741 25.0062 10.1982C24.9679 10.2223 24.9375 10.257 24.9185 10.298Z" fill="#50AF95"/>
<path fill-rule="evenodd" clip-rule="evenodd" d="M37.0146 23.7349C36.9021 23.7433 36.321 23.778 35.0247 23.778C33.9937 23.778 33.2617 23.747 33.0049 23.7349C29.0205 23.5596 26.0464 22.866 26.0464 22.0355C26.0464 21.2051 29.0205 20.5124 33.0049 20.3344V23.0441C33.2654 23.0628 34.0115 23.1069 35.0426 23.1069C36.2798 23.1069 36.8993 23.0553 37.0109 23.045V20.3362C40.9869 20.5134 43.9543 21.207 43.9543 22.0355C43.9543 22.8641 40.9878 23.5577 37.0109 23.7339L37.0146 23.7349ZM37.0146 20.056V17.6312H42.5634V13.9336H27.4561V17.6312H33.0039V20.055C28.4946 20.2622 25.1035 21.1554 25.1035 22.2258C25.1035 23.2962 28.4946 24.1885 33.0039 24.3966V32.1667H37.0137V24.3938C41.5127 24.1866 44.8982 23.2943 44.8982 22.2249C44.8982 21.1554 41.5155 20.2631 37.0137 20.055L37.0146 20.056Z" fill="white"/>
</svg>
