<svg width="20" height="20" viewBox="0 0 20 20" fill="none" xmlns="http://www.w3.org/2000/svg">
<path d="M12.3529 4.9429H14.2213L14.1891 3.74355H12.6097L14.0941 0.510507L12.4147 0.362413L10.9397 1.55394L11.4315 0.206497L9.71005 0L9.14546 1.68379L8.21768 0.380143L5.66541 0.286802L7.35422 3.74407L5.82969 3.69244V4.94238H7.29881C4.16562 6.8749 1.90826 11.9263 1.90826 14.6551C1.90826 18.0758 5.45314 20 9.82534 20C14.1975 20 17.7424 18.0758 17.7424 14.6551C17.7429 11.9263 15.4861 6.87542 12.3529 4.9429ZM10.4874 16.2961V17.4803H9.40722V16.3774C8.66895 16.3435 7.95246 16.1329 7.53384 15.8784L7.86438 14.5205C8.32704 14.788 8.97772 15.031 9.69372 15.031C10.3216 15.031 10.7516 14.7755 10.7516 14.3119C10.7516 13.8692 10.3993 13.5902 9.58387 13.3008C8.40423 12.8831 7.60015 12.3017 7.60015 11.1764C7.60015 10.1544 8.28349 9.35235 9.46264 9.10935V8.00594H10.5428V9.028C11.2806 9.06346 11.7774 9.22459 12.1406 9.41075L11.8209 10.7233C11.5344 10.596 11.0273 10.328 10.2341 10.328C9.51757 10.328 9.28599 10.6529 9.28599 10.9777C9.28599 11.3615 9.67195 11.605 10.6086 11.9768C11.9194 12.466 12.4489 13.1032 12.4489 14.1492C12.4494 15.1812 11.7546 16.064 10.4874 16.2961Z" fill="#16DBCC"/>
</svg>
