<svg width="37" height="37" viewBox="0 0 37 37" fill="none" xmlns="http://www.w3.org/2000/svg">
<path d="M18.5003 34.8876C17.4674 34.8876 16.4191 34.6564 15.602 34.1784L7.12287 29.2914C3.66954 26.9634 3.4537 26.6089 3.4537 22.9551V14.0443C3.4537 10.3905 3.65412 10.0359 7.04579 7.73887L15.5866 2.80553C17.2053 1.86512 19.7491 1.86512 21.3678 2.80553L29.8778 7.70803C33.3312 10.0359 33.547 10.3905 33.547 14.0443V22.9397C33.547 26.5934 33.3466 26.948 29.9549 29.2451L21.4141 34.1784C20.5816 34.6564 19.5332 34.8876 18.5003 34.8876ZM18.5003 4.42428C17.8528 4.42428 17.2207 4.54762 16.7737 4.8097L8.29454 9.7122C5.78162 11.408 5.78162 11.408 5.78162 14.0443V22.9397C5.78162 25.5759 5.78162 25.5759 8.3562 27.318L16.7737 32.1743C17.6832 32.6984 19.3328 32.6984 20.2424 32.1743L28.7216 27.2718C31.2191 25.5759 31.2191 25.5759 31.2191 22.9397V14.0443C31.2191 11.408 31.2191 11.408 28.6445 9.66595L20.227 4.8097C19.7799 4.54762 19.1478 4.42428 18.5003 4.42428Z" fill="black"/>
<path d="M18.5 24.2812C15.3088 24.2812 12.7188 21.6912 12.7188 18.5C12.7188 15.3088 15.3088 12.7188 18.5 12.7188C21.6912 12.7188 24.2812 15.3088 24.2812 18.5C24.2812 21.6912 21.6912 24.2812 18.5 24.2812ZM18.5 15.0312C16.5883 15.0312 15.0312 16.5883 15.0312 18.5C15.0312 20.4117 16.5883 21.9688 18.5 21.9688C20.4117 21.9688 21.9688 20.4117 21.9688 18.5C21.9688 16.5883 20.4117 15.0312 18.5 15.0312Z" fill="black"/>
</svg>
