<svg width="31" height="30" viewBox="0 0 31 30" fill="none" xmlns="http://www.w3.org/2000/svg">
<g clip-path="url(#clip0_7_646)">
<path d="M12.1249 14.9999C10.6416 14.9999 9.1915 14.56 7.95814 13.7359C6.72477 12.9118 5.76347 11.7405 5.19582 10.37C4.62816 8.99959 4.47963 7.49159 4.76902 6.03673C5.05841 4.58188 5.77272 3.2455 6.82161 2.19661C7.87051 1.14772 9.20688 0.433411 10.6617 0.144022C12.1166 -0.145367 13.6246 0.00315809 14.995 0.570815C16.3655 1.13847 17.5368 2.09977 18.3609 3.33313C19.185 4.5665 19.6249 6.01655 19.6249 7.49991C19.6229 9.48843 18.8321 11.3949 17.426 12.801C16.0199 14.2071 14.1134 14.9979 12.1249 14.9999ZM12.1249 2.49991C11.136 2.49991 10.1693 2.79316 9.34706 3.34256C8.52482 3.89197 7.88395 4.67286 7.50551 5.58649C7.12708 6.50013 7.02806 7.50546 7.22099 8.47536C7.41391 9.44527 7.89012 10.3362 8.58938 11.0354C9.28864 11.7347 10.1796 12.2109 11.1495 12.4038C12.1194 12.5968 13.1247 12.4977 14.0383 12.1193C14.952 11.7409 15.7329 11.1 16.2823 10.2778C16.8317 9.45552 17.1249 8.48882 17.1249 7.49991C17.1249 6.17383 16.5981 4.90206 15.6604 3.96438C14.7228 3.0267 13.451 2.49991 12.1249 2.49991Z" fill="#979797"/>
<path d="M23.375 29.9996H20.875V23.6958C20.8737 22.7159 20.4838 21.7766 19.7909 21.0837C19.098 20.3908 18.1586 20.0009 17.1787 19.9996H7.07123C6.09133 20.0009 5.15195 20.3908 4.45905 21.0837C3.76616 21.7766 3.37631 22.7159 3.37498 23.6958V29.9996H0.874985V23.6958C0.87697 22.0531 1.53042 20.4782 2.69202 19.3166C3.85361 18.155 5.4285 17.5016 7.07123 17.4996H17.1787C18.8215 17.5016 20.3964 18.155 21.558 19.3166C22.7195 20.4782 23.373 22.0531 23.375 23.6958V29.9996Z" fill="#979797"/>
<path d="M28.3748 9.84375C27.6792 9.8784 27.0256 10.1872 26.557 10.7026C26.0885 11.218 25.8432 11.898 25.8748 12.5937C25.9064 11.898 25.6611 11.218 25.1926 10.7026C24.7241 10.1872 24.0705 9.8784 23.3748 9.84375C22.6792 9.8784 22.0256 10.1872 21.5571 10.7026C21.0885 11.218 20.8432 11.898 20.8748 12.5937C20.8748 15.4687 25.8748 19.01 25.8748 19.01C25.8748 19.01 30.8748 15.4737 30.8748 12.5937C30.9064 11.898 30.6611 11.218 30.1926 10.7026C29.7241 10.1872 29.0705 9.8784 28.3748 9.84375Z" fill="#979797"/>
</g>
<defs>
<clipPath id="clip0_7_646">
<rect width="30" height="30" fill="white" transform="translate(0.875)"/>
</clipPath>
</defs>
</svg>
