<svg width="31" height="30" viewBox="0 0 31 30" fill="none" xmlns="http://www.w3.org/2000/svg">
<g clip-path="url(#clip0_7_621)">
<path d="M12.1249 14.9999C10.6415 14.9999 9.19147 14.56 7.95811 13.7359C6.72474 12.9118 5.76344 11.7405 5.19578 10.37C4.62813 8.99959 4.4796 7.49159 4.76899 6.03673C5.05838 4.58188 5.77269 3.2455 6.82158 2.19661C7.87047 1.14772 9.20685 0.433411 10.6617 0.144022C12.1166 -0.145367 13.6246 0.00315809 14.995 0.570815C16.3655 1.13847 17.5368 2.09977 18.3609 3.33313C19.185 4.5665 19.6249 6.01655 19.6249 7.49991C19.6229 9.48843 18.8321 11.3949 17.426 12.801C16.0199 14.2071 14.1134 14.9979 12.1249 14.9999ZM12.1249 2.49991C11.136 2.49991 10.1693 2.79316 9.34703 3.34256C8.52478 3.89197 7.88392 4.67286 7.50548 5.58649C7.12705 6.50013 7.02803 7.50546 7.22096 8.47536C7.41388 9.44527 7.89008 10.3362 8.58935 11.0354C9.28861 11.7347 10.1795 12.2109 11.1494 12.4038C12.1193 12.5968 13.1247 12.4977 14.0383 12.1193C14.9519 11.7409 15.7328 11.1 16.2822 10.2778C16.8316 9.45552 17.1249 8.48882 17.1249 7.49991C17.1249 6.17383 16.5981 4.90206 15.6604 3.96438C14.7227 3.0267 13.451 2.49991 12.1249 2.49991Z" fill="#F091FF"/>
<path d="M23.375 29.9996H20.875V23.6958C20.8737 22.7159 20.4838 21.7766 19.7909 21.0837C19.098 20.3908 18.1587 20.0009 17.1788 19.9996H7.07125C6.09135 20.0009 5.15196 20.3908 4.45907 21.0837C3.76617 21.7766 3.37632 22.7159 3.375 23.6958V29.9996H0.875V23.6958C0.876985 22.0531 1.53044 20.4782 2.69203 19.3166C3.85362 18.155 5.42851 17.5016 7.07125 17.4996H17.1788C18.8215 17.5016 20.3964 18.155 21.558 19.3166C22.7196 20.4782 23.373 22.0531 23.375 23.6958V29.9996Z" fill="#F091FF"/>
<path d="M28.3749 9.84375C27.6792 9.8784 27.0256 10.1872 26.5571 10.7026C26.0886 11.218 25.8433 11.898 25.8749 12.5937C25.9065 11.898 25.6612 11.218 25.1927 10.7026C24.7241 10.1872 24.0705 9.8784 23.3749 9.84375C22.6792 9.8784 22.0257 10.1872 21.5571 10.7026C21.0886 11.218 20.8433 11.898 20.8749 12.5937C20.8749 15.4687 25.8749 19.01 25.8749 19.01C25.8749 19.01 30.8749 15.4737 30.8749 12.5937C30.9065 11.898 30.6612 11.218 30.1927 10.7026C29.7241 10.1872 29.0705 9.8784 28.3749 9.84375Z" fill="#F091FF"/>
</g>
<defs>
<clipPath id="clip0_7_621">
<rect width="30" height="30" fill="white" transform="translate(0.875)"/>
</clipPath>
</defs>
</svg>
