<svg width="12.000000" height="12.000000" viewBox="0 0 12 12" fill="none" xmlns="http://www.w3.org/2000/svg" xmlns:xlink="http://www.w3.org/1999/xlink">
	<desc>
			Created with Pixso.
	</desc>
	<defs>
		<clipPath id="clip14_406">
			<rect id="fi-rr-map" width="12.000000" height="12.000000" fill="white" fill-opacity="0"/>
		</clipPath>
	</defs>
	<rect id="fi-rr-map" width="12.000000" height="12.000000" fill="#FFFFFF" fill-opacity="0"/>
	<g clip-path="url(#clip14_406)">
		<path id="Vector" d="M10.34 0.583618L10.3295 0.580078L8.97198 0.130066C8.50311 -0.0255737 7.99869 -0.0393066 7.522 0.0905762L4.73401 0.900085C4.39264 0.99054 4.03036 0.95874 3.70999 0.81012L3.45999 0.694092C3.08029 0.536194 2.66751 0.474365 2.25821 0.51416C1.84891 0.553894 1.45572 0.694031 1.11353 0.922119C0.771332 1.15021 0.490692 1.45911 0.296448 1.82159C0.102203 2.18408 0.000396729 2.58887 0 3.00006L0 9.0376C0.0010376 9.57825 0.17691 10.1041 0.501282 10.5366C0.825684 10.9691 1.28125 11.2852 1.79999 11.4376L3.2345 11.8876C3.4765 11.9628 3.72858 12.0007 3.98199 12.0001C4.20792 12.0029 4.43298 11.9725 4.64999 11.9096L7.54999 11.1096C7.815 11.0377 8.09467 11.04 8.35849 11.1161L9.53 11.4541C9.8241 11.5252 10.1305 11.5286 10.4261 11.4642C10.7218 11.3997 10.9989 11.269 11.2367 11.0818C11.4745 10.8948 11.6668 10.6561 11.799 10.384C11.9312 10.1118 11.9999 9.81317 12 9.51056L12 2.93811C11.9992 2.42249 11.8394 1.91974 11.5423 1.49835C11.2452 1.07697 10.8254 0.757507 10.34 0.583618ZM2.08801 10.4796C1.77515 10.3891 1.50003 10.1997 1.30389 9.93976C1.10776 9.67975 1.00113 9.36322 1 9.0376L1 3.00006C0.997559 2.75244 1.05746 2.50812 1.17422 2.28967C1.29095 2.07129 1.46075 1.88568 1.668 1.75012C1.91461 1.58649 2.20407 1.49951 2.5 1.50012C2.69083 1.50012 2.87979 1.53784 3.056 1.61108C3.056 1.61108 3.4285 1.77057 3.49951 1.79608L3.49951 10.9211L2.08801 10.4796ZM4.5 10.9136L4.5 1.93958C4.66983 1.9306 4.83835 1.9046 5.00299 1.86212L7.5 1.1366L7.5 10.1001L4.5 10.9136ZM11 9.51056C11.0001 9.66034 10.9666 9.80823 10.9019 9.9433C10.8372 10.0784 10.743 10.1972 10.6262 10.291C10.5094 10.3848 10.373 10.4511 10.2272 10.4852C10.0814 10.5192 9.92972 10.52 9.78351 10.4876L8.5 10.1261L8.5 1.0376L10.009 1.5271C10.299 1.63214 10.5497 1.82391 10.727 2.07635C10.9042 2.3288 10.9996 2.62964 11 2.93811L11 9.51056Z" fill="#612EF7" fill-opacity="1.000000" fill-rule="nonzero"/>
	</g>
</svg>
