<svg width="30" height="30" viewBox="0 0 30 30" fill="none" xmlns="http://www.w3.org/2000/svg">
<g clip-path="url(#clip0_7_1505)">
<path d="M28.3912 5.09625C28.0396 4.6743 27.5995 4.33494 27.1019 4.10227C26.6044 3.8696 26.0617 3.74933 25.5125 3.75H5.3025L5.25 3.31125C5.14256 2.39927 4.70423 1.55842 4.01811 0.948097C3.33199 0.337779 2.44578 0.000427242 1.5275 0L1.25 0C0.918479 0 0.600537 0.131696 0.366117 0.366117C0.131696 0.600537 0 0.918479 0 1.25C0 1.58152 0.131696 1.89946 0.366117 2.13388C0.600537 2.3683 0.918479 2.5 1.25 2.5H1.5275C1.83367 2.50004 2.12917 2.61245 2.35796 2.81589C2.58676 3.01934 2.73293 3.29969 2.76875 3.60375L4.48875 18.2288C4.66732 19.7497 5.3981 21.1522 6.54239 22.17C7.68667 23.1878 9.16482 23.75 10.6962 23.75H23.75C24.0815 23.75 24.3995 23.6183 24.6339 23.3839C24.8683 23.1495 25 22.8315 25 22.5C25 22.1685 24.8683 21.8505 24.6339 21.6161C24.3995 21.3817 24.0815 21.25 23.75 21.25H10.6962C9.92257 21.2478 9.1685 21.0064 8.53742 20.5588C7.90634 20.1113 7.42914 19.4794 7.17125 18.75H22.0712C23.5366 18.7501 24.9554 18.2353 26.0798 17.2955C27.2041 16.3558 27.9625 15.0509 28.2225 13.6088L29.2038 8.16625C29.3017 7.62626 29.2797 7.07133 29.1393 6.5408C28.9989 6.01026 28.7435 5.5171 28.3912 5.09625ZM26.75 7.7225L25.7675 13.165C25.6114 14.0312 25.1556 14.815 24.4798 15.379C23.8041 15.943 22.9514 16.2513 22.0712 16.25H6.77375L5.5975 6.25H25.5125C25.6961 6.2489 25.8777 6.28828 26.0444 6.36532C26.2111 6.44236 26.3588 6.55518 26.4769 6.69576C26.595 6.83634 26.6808 7.00121 26.728 7.17867C26.7752 7.35613 26.7827 7.54181 26.75 7.7225Z" fill="#F091FF"/>
<path d="M8.75018 30.0008C10.1309 30.0008 11.2502 28.8815 11.2502 27.5008C11.2502 26.1201 10.1309 25.0008 8.75018 25.0008C7.36947 25.0008 6.25018 26.1201 6.25018 27.5008C6.25018 28.8815 7.36947 30.0008 8.75018 30.0008Z" fill="#F091FF"/>
<path d="M21.25 30.0008C22.6307 30.0008 23.75 28.8815 23.75 27.5008C23.75 26.1201 22.6307 25.0008 21.25 25.0008C19.8693 25.0008 18.75 26.1201 18.75 27.5008C18.75 28.8815 19.8693 30.0008 21.25 30.0008Z" fill="#F091FF"/>
</g>
<defs>
<clipPath id="clip0_7_1505">
<rect width="30" height="30" fill="white"/>
</clipPath>
</defs>
</svg>
