<svg width="15" height="15" viewBox="0 0 15 15" fill="none" xmlns="http://www.w3.org/2000/svg">
<g clip-path="url(#clip0_7_111)" filter="url(#filter0_i_7_111)">
<path d="M13.7501 2.5H10.6251V1.25C10.6251 0.918479 10.4934 0.600537 10.259 0.366117C10.0246 0.131696 9.70664 0 9.37512 0L5.62512 0C5.2936 0 4.97566 0.131696 4.74124 0.366117C4.50682 0.600537 4.37512 0.918479 4.37512 1.25V2.5H1.25012V3.75H2.50012V13.125C2.50012 13.6223 2.69767 14.0992 3.0493 14.4508C3.40093 14.8025 3.87784 15 4.37512 15H10.6251C11.1224 15 11.5993 14.8025 11.9509 14.4508C12.3026 14.0992 12.5001 13.6223 12.5001 13.125V3.75H13.7501V2.5ZM5.62512 1.25H9.37512V2.5H5.62512V1.25ZM11.2501 13.125C11.2501 13.2908 11.1843 13.4497 11.0671 13.5669C10.9499 13.6842 10.7909 13.75 10.6251 13.75H4.37512C4.20936 13.75 4.05039 13.6842 3.93318 13.5669C3.81597 13.4497 3.75012 13.2908 3.75012 13.125V3.75H11.2501V13.125Z" fill="#E00808"/>
<path d="M6.87506 6.24962H5.62506V11.2496H6.87506V6.24962Z" fill="#E00808"/>
<path d="M9.37525 6.24962H8.12524V11.2496H9.37525V6.24962Z" fill="#E00808"/>
</g>
<defs>
<filter id="filter0_i_7_111" x="0" y="0" width="15" height="19" filterUnits="userSpaceOnUse" color-interpolation-filters="sRGB">
<feFlood flood-opacity="0" result="BackgroundImageFix"/>
<feBlend mode="normal" in="SourceGraphic" in2="BackgroundImageFix" result="shape"/>
<feColorMatrix in="SourceAlpha" type="matrix" values="0 0 0 0 0 0 0 0 0 0 0 0 0 0 0 0 0 0 127 0" result="hardAlpha"/>
<feOffset dy="4"/>
<feGaussianBlur stdDeviation="2"/>
<feComposite in2="hardAlpha" operator="arithmetic" k2="-1" k3="1"/>
<feColorMatrix type="matrix" values="0 0 0 0 0 0 0 0 0 0 0 0 0 0 0 0 0 0 0.25 0"/>
<feBlend mode="normal" in2="shape" result="effect1_innerShadow_7_111"/>
</filter>
<clipPath id="clip0_7_111">
<rect width="15" height="15" fill="white"/>
</clipPath>
</defs>
</svg>
