<svg width="31" height="30" viewBox="0 0 31 30" fill="none" xmlns="http://www.w3.org/2000/svg">
<g clip-path="url(#clip0_7_732)">
<path d="M22.25 2.39566C20.8424 2.41755 19.4656 2.81048 18.2584 3.53475C17.0513 4.25902 16.0567 5.289 15.375 6.52066C14.6933 5.289 13.6986 4.25902 12.4915 3.53475C11.2844 2.81048 9.90754 2.41755 8.49998 2.39566C6.25615 2.49315 4.14211 3.47473 2.61971 5.12595C1.0973 6.77717 0.29029 8.96382 0.374978 11.2082C0.374978 16.8919 6.35748 23.0994 11.375 27.3082C12.4953 28.2496 13.9117 28.7657 15.375 28.7657C16.8383 28.7657 18.2547 28.2496 19.375 27.3082C24.3925 23.0994 30.375 16.8919 30.375 11.2082C30.4597 8.96382 29.6527 6.77717 28.1303 5.12595C26.6078 3.47473 24.4938 2.49315 22.25 2.39566ZM17.7687 25.3957C17.0987 25.9599 16.2509 26.2693 15.375 26.2693C14.499 26.2693 13.6512 25.9599 12.9812 25.3957C6.55873 20.0069 2.87498 14.8369 2.87498 11.2082C2.78953 9.62656 3.33294 8.07532 4.38668 6.89279C5.44043 5.71025 6.91902 4.99235 8.49998 4.89566C10.0809 4.99235 11.5595 5.71025 12.6133 6.89279C13.667 8.07532 14.2104 9.62656 14.125 11.2082C14.125 11.5397 14.2567 11.8576 14.4911 12.092C14.7255 12.3265 15.0435 12.4582 15.375 12.4582C15.7065 12.4582 16.0244 12.3265 16.2589 12.092C16.4933 11.8576 16.625 11.5397 16.625 11.2082C16.5395 9.62656 17.0829 8.07532 18.1367 6.89279C19.1904 5.71025 20.669 4.99235 22.25 4.89566C23.8309 4.99235 25.3095 5.71025 26.3633 6.89279C27.417 8.07532 27.9604 9.62656 27.875 11.2082C27.875 14.8369 24.1912 20.0069 17.7687 25.3907V25.3957Z" fill="#979797"/>
</g>
<defs>
<clipPath id="clip0_7_732">
<rect width="30" height="30" fill="white" transform="translate(0.375)"/>
</clipPath>
</defs>
</svg>
