<svg width="31" height="30" viewBox="0 0 31 30" fill="none" xmlns="http://www.w3.org/2000/svg">
<g clip-path="url(#clip0_7_728)">
<path d="M22.4861 2.39566C21.0785 2.41755 19.7017 2.81048 18.4946 3.53475C17.2874 4.25902 16.2928 5.289 15.6111 6.52066C14.9294 5.289 13.9348 4.25902 12.7276 3.53475C11.5205 2.81048 10.1437 2.41755 8.7361 2.39566C6.49228 2.49315 4.37823 3.47473 2.85583 5.12595C1.33342 6.77717 0.526412 8.96382 0.611101 11.2082C0.611101 16.8919 6.5936 23.0994 11.6111 27.3082C12.7314 28.2496 14.1478 28.7657 15.6111 28.7657C17.0744 28.7657 18.4908 28.2496 19.6111 27.3082C24.6286 23.0994 30.6111 16.8919 30.6111 11.2082C30.6958 8.96382 29.8888 6.77717 28.3664 5.12595C26.844 3.47473 24.7299 2.49315 22.4861 2.39566ZM18.0049 25.3957C17.3348 25.9599 16.487 26.2693 15.6111 26.2693C14.7352 26.2693 13.8874 25.9599 13.2174 25.3957C6.79485 20.0069 3.1111 14.8369 3.1111 11.2082C3.02565 9.62656 3.56906 8.07532 4.6228 6.89279C5.67655 5.71025 7.15514 4.99235 8.7361 4.89566C10.3171 4.99235 11.7957 5.71025 12.8494 6.89279C13.9031 8.07532 14.4465 9.62656 14.3611 11.2082C14.3611 11.5397 14.4928 11.8576 14.7272 12.092C14.9616 12.3265 15.2796 12.4582 15.6111 12.4582C15.9426 12.4582 16.2606 12.3265 16.495 12.092C16.7294 11.8576 16.8611 11.5397 16.8611 11.2082C16.7757 9.62656 17.3191 8.07532 18.3728 6.89279C19.4265 5.71025 20.9051 4.99235 22.4861 4.89566C24.0671 4.99235 25.5456 5.71025 26.5994 6.89279C27.6531 8.07532 28.1966 9.62656 28.1111 11.2082C28.1111 14.8369 24.4274 20.0069 18.0049 25.3907V25.3957Z" fill="#F091FF"/>
</g>
<defs>
<clipPath id="clip0_7_728">
<rect width="30" height="30" fill="white" transform="translate(0.611115)"/>
</clipPath>
</defs>
</svg>
