<svg width="35.000000" height="35.000000" viewBox="0 0 35 35" fill="none" xmlns="http://www.w3.org/2000/svg" xmlns:xlink="http://www.w3.org/1999/xlink">
	<desc>
			Created with Pixso.
	</desc>
	<defs>
		<clipPath id="clip20_487">
			<rect id="fi-rr-user" width="35.000000" height="35.000000" fill="white" fill-opacity="0"/>
		</clipPath>
	</defs>
	<rect id="fi-rr-user" width="35.000000" height="35.000000" fill="#FFFFFF" fill-opacity="0"/>
	<g clip-path="url(#clip20_487)">
		<path id="Vector" d="M17.5 17.4999C19.2306 17.4999 20.9223 16.9867 22.3612 16.0253C23.8002 15.0638 24.9217 13.6972 25.584 12.0984C26.2462 10.4995 26.4195 8.74017 26.0819 7.04285C25.7443 5.34552 24.9109 3.78638 23.6872 2.56268C22.4635 1.33899 20.9044 0.505615 19.207 0.16803C17.5097 -0.169617 15.7504 0.00366211 14.1515 0.665955C12.5527 1.32819 11.1861 2.44971 10.2246 3.88867C9.26318 5.32758 8.75 7.01929 8.75 8.74988C8.75232 11.0698 9.67493 13.2941 11.3154 14.9345C12.9558 16.575 15.1801 17.4976 17.5 17.4999ZM17.5 2.91656C18.6537 2.91656 19.7815 3.25867 20.7408 3.89966C21.7001 4.54059 22.4478 5.45166 22.8893 6.51758C23.3308 7.58344 23.4463 8.75635 23.2213 9.88794C22.9962 11.0195 22.4406 12.0588 21.6248 12.8747C20.809 13.6905 19.7696 14.246 18.638 14.4711C17.5065 14.6962 16.3336 14.5807 15.2677 14.1392C14.2018 13.6977 13.2907 12.95 12.6497 11.9907C12.0088 11.0314 11.6667 9.90363 11.6667 8.74988C11.6667 7.20276 12.2812 5.71906 13.3752 4.62512C14.4692 3.53113 15.9529 2.91656 17.5 2.91656Z" fill="#F091FF" fill-opacity="1.000000" fill-rule="nonzero"/>
		<path id="Vector" d="M17.5 20.4175C14.0202 20.4214 10.6841 21.8054 8.22348 24.2661C5.76291 26.7266 4.37885 30.0627 4.375 33.5425C4.375 33.9293 4.52866 34.3002 4.80212 34.5737C5.07562 34.8472 5.44656 35.0009 5.83334 35.0009C6.22009 35.0009 6.59103 34.8472 6.86453 34.5737C7.13803 34.3002 7.29166 33.9293 7.29166 33.5425C7.29166 30.8351 8.36719 28.2386 10.2816 26.3242C12.196 24.4097 14.7926 23.3342 17.5 23.3342C20.2074 23.3342 22.804 24.4097 24.7184 26.3242C26.6328 28.2386 27.7083 30.8351 27.7083 33.5425C27.7083 33.9293 27.862 34.3002 28.1355 34.5737C28.409 34.8472 28.7799 35.0009 29.1667 35.0009C29.5534 35.0009 29.9244 34.8472 30.1979 34.5737C30.4713 34.3002 30.625 33.9293 30.625 33.5425C30.6211 30.0627 29.2371 26.7266 26.7765 24.2661C24.3159 21.8054 20.9798 20.4214 17.5 20.4175Z" fill="#F091FF" fill-opacity="1.000000" fill-rule="nonzero"/>
	</g>
</svg>
