<svg width="30" height="30" viewBox="0 0 30 30" fill="none" xmlns="http://www.w3.org/2000/svg">
<g clip-path="url(#clip0_7_906)">
<path d="M21.875 2.39566C20.4674 2.41755 19.0906 2.81048 17.8834 3.53475C16.6763 4.25902 15.6817 5.289 15 6.52066C14.3183 5.289 13.3237 4.25902 12.1165 3.53475C10.9094 2.81048 9.53255 2.41755 8.12498 2.39566C5.88116 2.49315 3.76712 3.47473 2.24471 5.12595C0.722309 6.77717 -0.0847041 8.96382 -1.58967e-05 11.2082C-1.58967e-05 16.8919 5.98248 23.0994 11 27.3082C12.1203 28.2496 13.5367 28.7657 15 28.7657C16.4633 28.7657 17.8797 28.2496 19 27.3082C24.0175 23.0994 30 16.8919 30 11.2082C30.0847 8.96382 29.2777 6.77717 27.7553 5.12595C26.2329 3.47473 24.1188 2.49315 21.875 2.39566ZM17.3937 25.3957C16.7237 25.9599 15.8759 26.2693 15 26.2693C14.124 26.2693 13.2763 25.9599 12.6062 25.3957C6.18373 20.0069 2.49998 14.8369 2.49998 11.2082C2.41453 9.62656 2.95794 8.07532 4.01169 6.89279C5.06543 5.71025 6.54403 4.99235 8.12498 4.89566C9.70594 4.99235 11.1845 5.71025 12.2383 6.89279C13.292 8.07532 13.8354 9.62656 13.75 11.2082C13.75 11.5397 13.8817 11.8576 14.1161 12.092C14.3505 12.3265 14.6685 12.4582 15 12.4582C15.3315 12.4582 15.6494 12.3265 15.8839 12.092C16.1183 11.8576 16.25 11.5397 16.25 11.2082C16.1645 9.62656 16.7079 8.07532 17.7617 6.89279C18.8154 5.71025 20.294 4.99235 21.875 4.89566C23.4559 4.99235 24.9345 5.71025 25.9883 6.89279C27.042 8.07532 27.5854 9.62656 27.5 11.2082C27.5 14.8369 23.8162 20.0069 17.3937 25.3907V25.3957Z" fill="#F091FF"/>
</g>
<defs>
<clipPath id="clip0_7_906">
<rect width="30" height="30" fill="white"/>
</clipPath>
</defs>
</svg>
