<svg width="20.489795684814453" height="20.32653045654297" fill="none" xmlns="http://www.w3.org/2000/svg" style=""><rect id="backgroundrect" width="100%" height="100%" x="0" y="0" fill="none" stroke="none" style="" class=""/>

<g class="currentLayer" style=""><title>Layer 1</title><path d="M7.735871307800616,15.229728308037316 C8.585399322803822,15.71966260240415 9.57107676878294,15.999999750212226 10.622217644489611,15.999999750212226 C13.81755198663553,15.999999750212226 16.408163460958804,13.409619704464468 16.408163460958804,10.214285362318549 C16.408163460958804,7.018920163029227 13.817783415211046,4.428570974424874 10.622449073065127,4.428570974424874 C7.427083873775806,4.428570974424874 4.83673468517145,7.018920163029227 4.83673468517145,10.214285362318549 C4.83673468517145,11.265433952311072 5.117048690121974,12.251088255432638 5.606998413060511,13.100662556150946 L5.60889612737974,13.103902556208167 C5.656045842498148,13.185673986223732 5.679813557203616,13.226868272665534 5.690582700250949,13.265825416210685 C5.700742414716091,13.302545416859182 5.7035735576232325,13.335639703157936 5.700973843291605,13.373671132401022 C5.6981812718137155,13.414479704550299 5.684411271570529,13.456908276728186 5.656176985357607,13.54161113536695 L5.161930405200327,15.024296875837834 L5.161305548046435,15.026225447300469 C5.05703154620489,15.339116881397757 5.004890688141192,15.495485455587897 5.04205040308317,15.599705457428492 C5.074458117941226,15.690579744747673 5.1463861192115194,15.762322603157553 5.2372681208165535,15.794722603729756 C5.341256694081629,15.83182831867078 5.496977268260325,15.77991117489675 5.808441559475268,15.676076887348685 L5.812321845258082,15.674688315895587 L7.295053871444071,15.18043402145246 C7.379471301506365,15.152276878098043 7.422393587978686,15.138005449274573 7.463186731556261,15.135228306368383 C7.5012181607993496,15.132605449179202 7.534019304235782,15.136076877811941 7.570762447741831,15.14618259227613 C7.609819877003039,15.156982592466864 7.651060449159944,15.180819735744983 7.733217593468035,15.228185450867208 L7.735871307800616,15.229728308037316 z" stroke="#111111" stroke-width="2" stroke-linecap="round" stroke-linejoin="round" id="svg_1" class=""/><polyline fill="none" stroke="#111111" style="color: rgb(0, 0, 0);" stroke-width="2" stroke-linejoin="round" stroke-linecap="round" stroke-dashoffset="" fill-rule="nonzero" marker-start="" marker-mid="" marker-end="" id="svg_3" points="13.316326797008514,10.01020359992981 13.316326797008514,10.173468828201294 " class=""/><polyline fill="none" stroke="#111111" style="color: rgb(0, 0, 0);" stroke-width="2" stroke-linejoin="round" stroke-linecap="round" stroke-dashoffset="" fill-rule="nonzero" marker-start="" marker-mid="" marker-end="" points="7.765307784080505,10.09183818101883 7.765307784080505,10.255103409290314 " class="" id="svg_8"/><polyline fill="none" stroke="#111111" style="color: rgb(0, 0, 0);" stroke-width="2" stroke-linejoin="round" stroke-linecap="round" stroke-dashoffset="" fill-rule="nonzero" marker-start="" marker-mid="" marker-end="" points="10.62244987487793,10.091837882995605 10.62244987487793,10.25510311126709 " class="" id="svg_4"/><polyline fill="none" stroke="#111111" style="color: rgb(0, 0, 0);" stroke-width="2" stroke-linejoin="round" stroke-linecap="round" stroke-dashoffset="" fill-rule="nonzero" marker-start="" marker-mid="" marker-end="" points="51.68367385864258,48.2142858505249 51.68367385864258,48.37755107879639 " class="" id="svg_6"/><polyline fill="none" stroke="#111111" style="color: rgb(0, 0, 0);" stroke-width="2" stroke-linejoin="round" stroke-linecap="round" stroke-dashoffset="" fill-rule="nonzero" marker-start="" marker-mid="" marker-end="" points="71.68367385864258,68.2142858505249 71.68367385864258,68.37755107879639 " class="" id="svg_7"/></g></svg>