<svg width="20" height="20" fill="none" xmlns="http://www.w3.org/2000/svg"><rect id="backgroundrect" width="100%" height="100%" x="0" y="0" fill="none" stroke="none" style="" class=""/>

<g class="currentLayer" style=""><title>Layer 1</title><path d="M14.934851568279214,8.795347609100899 C14.934851568279214,7.657507677946663 14.449017655563054,6.5662650096963855 13.584161631152458,5.761687405459671 C12.719402444276785,4.957109801222964 11.546506221271395,4.505101935814684 10.323515941449568,4.505101935814684 C9.100515977874247,4.505101935814684 7.927610071115364,4.957109801222964 7.062821832979214,5.761687405459671 C6.1980335948430625,6.5662650096963855 5.71219968212691,7.657507677946663 5.71219968212691,8.795347609100899 V12.549319330370032 C5.71219968212691,12.976037459318253 5.530009543919981,13.385250081340264 5.205720006964858,13.6869790710258 C4.881420786256239,13.988617965462097 4.441584702629219,14.158177224520976 3.9829621372268464,14.158177224520976 H16.66407942942578 C16.20545686402341,14.158177224520976 15.765620780396386,13.988617965462097 15.441311875934279,13.6869790710258 C15.117002971472171,13.385250081340264 14.934851568279214,12.976037459318253 14.934851568279214,12.549319330370032 V8.795347609100899 z" stroke="#000000" stroke-linecap="round" stroke-linejoin="round" id="svg_1" class="" opacity="1" fill="none" stroke-opacity="1"/><path fill="none" fill-opacity="1" stroke="#000000" stroke-opacity="1" stroke-width="1" stroke-dasharray="none" stroke-linejoin="round" stroke-linecap="round" stroke-dashoffset="" fill-rule="nonzero" opacity="1" marker-start="" marker-mid="" marker-end="" d="M9.38775533436671,16.653061270713806 L11.183673835215888,16.653061270713806 " id="svg_2" class=""/></g></svg>