<svg width="12.000000" height="12.000000" viewBox="0 0 12 12" fill="none" xmlns="http://www.w3.org/2000/svg" xmlns:xlink="http://www.w3.org/1999/xlink">
	<desc>
			Created with Pixso.
	</desc>
	<defs>
		<clipPath id="clip14_416">
			<rect id="fi-rr-call-history" width="12.000000" height="12.000000" fill="white" fill-opacity="0"/>
		</clipPath>
	</defs>
	<rect id="fi-rr-call-history" width="12.000000" height="12.000000" fill="#FFFFFF" fill-opacity="0"/>
	<g clip-path="url(#clip14_416)">
		<path id="Vector" d="M8.88104 12C4.81555 12.1375 -2.50842 4.8725 0.892059 0.933533L1.46707 0.433533C1.75812 0.152161 2.14828 -0.0032959 2.55307 0.000854492C2.95789 0.00494385 3.34479 0.168274 3.63007 0.455505C3.64548 0.471191 3.65985 0.487915 3.67307 0.505493L4.57306 1.67499C4.84656 1.96442 4.99854 2.34778 4.99762 2.74603C4.99667 3.14423 4.84293 3.52686 4.56805 3.815L3.98907 4.54303C4.30963 5.32153 4.78076 6.02911 5.37546 6.62512C5.97018 7.22107 6.67673 7.69379 7.45456 8.01599L8.18655 7.43353C8.47845 7.16547 8.86017 7.01642 9.25647 7.01587C9.65277 7.01532 10.0349 7.16327 10.3275 7.43054L11.4976 8.33051C11.515 8.34369 11.5317 8.35791 11.5475 8.37305C11.8361 8.66425 11.998 9.05756 11.998 9.46753C11.998 9.87744 11.8361 10.2708 11.5475 10.562L11.092 11.087C10.8031 11.3791 10.4586 11.6104 10.0789 11.7672C9.69916 11.924 9.29187 12.0032 8.88104 12ZM2.53555 1C2.46371 0.999939 2.39255 1.01404 2.32614 1.0415C2.25974 1.06897 2.1994 1.10925 2.14856 1.16003L1.57306 1.66003C-1.24994 5.05402 7.38855 13.2115 10.36 10.404L10.816 9.87854C10.8703 9.83026 10.9144 9.77179 10.9459 9.70642C10.9774 9.64105 10.9956 9.57007 10.9996 9.49762C11.0035 9.42517 10.9931 9.35266 10.9689 9.28424C10.9447 9.21582 10.9072 9.15289 10.8586 9.099L9.69507 8.20551C9.67722 8.19238 9.66049 8.17786 9.64505 8.16199C9.54074 8.06262 9.40216 8.00714 9.25806 8.00714C9.11395 8.00714 8.97537 8.06262 8.87106 8.16199C8.85779 8.17548 8.84375 8.18817 8.82904 8.20001L7.85007 8.98004C7.7821 9.03412 7.7012 9.06958 7.61539 9.08289C7.52954 9.09625 7.44171 9.08698 7.36057 9.05603C6.35263 8.68054 5.43716 8.09277 4.67621 7.33258C3.91525 6.57245 3.32657 5.65759 2.95007 4.65002C2.91672 4.56769 2.90591 4.47797 2.91876 4.39014C2.93158 4.30225 2.96759 4.21936 3.02307 4.15002L3.80005 3.172C3.81161 3.15723 3.82416 3.14319 3.83755 3.13C3.9397 3.02704 3.99701 2.88782 3.99701 2.7428C3.99701 2.59772 3.9397 2.4585 3.83755 2.35553C3.82199 2.33997 3.80759 2.32324 3.79456 2.30554L2.90308 1.14349C2.80234 1.05249 2.67133 1.00226 2.53555 1.0025L2.53555 1ZM11.282 6.28802C13.777 2.61554 9.38205 -1.77496 5.71356 0.719543C5.65823 0.75647 5.61084 0.804077 5.57416 0.859558C5.53745 0.915039 5.51221 0.977295 5.49988 1.04266C5.48752 1.10803 5.48837 1.17517 5.50232 1.24023C5.51627 1.30524 5.54306 1.36688 5.58112 1.42139C5.61917 1.47595 5.66772 1.5224 5.72394 1.55792C5.78015 1.59351 5.84293 1.61749 5.90851 1.62848C5.97412 1.63947 6.04126 1.63727 6.10602 1.62201C6.17075 1.60669 6.23178 1.57867 6.28555 1.53949C9.02255 -0.339966 12.3405 2.98151 10.4621 5.71649C10.4221 5.77026 10.3932 5.83148 10.3773 5.89655C10.3615 5.96161 10.3588 6.02917 10.3695 6.09534C10.3803 6.16144 10.4042 6.22473 10.4398 6.28143C10.4755 6.33813 10.5222 6.38708 10.5772 6.42535C10.6321 6.46368 10.6942 6.49054 10.7598 6.50439C10.8253 6.51819 10.8929 6.51874 10.9587 6.50592C11.0244 6.4931 11.0869 6.46722 11.1425 6.42981C11.198 6.39233 11.2455 6.34418 11.282 6.28802ZM9.35306 5.35553C9.44678 5.26178 9.49945 5.13458 9.49945 5.00201C9.49945 4.86945 9.44678 4.74231 9.35306 4.6485L8.50006 3.79504L8.50006 2.5C8.50006 2.36743 8.44739 2.24023 8.35361 2.14648C8.25983 2.05267 8.13266 2 8.00006 2C7.86746 2 7.74026 2.05267 7.64651 2.14648C7.55273 2.24023 7.50006 2.36743 7.50006 2.5L7.50006 4C7.50009 4.13263 7.5528 4.25977 7.64655 4.35352L8.64655 5.35352C8.74033 5.44727 8.86746 5.49994 9.00006 5.49994C9.13263 5.49994 9.2598 5.44727 9.35355 5.35352L9.35306 5.35553Z" fill="#612EF7" fill-opacity="1.000000" fill-rule="nonzero"/>
	</g>
</svg>
