<svg width="70" height="48" viewBox="0 0 70 48" fill="none" xmlns="http://www.w3.org/2000/svg">
<rect width="70" height="48" rx="4" fill="#EFF9FF"/>
<path fill-rule="evenodd" clip-rule="evenodd" d="M26.3346 32.3173C26.6479 32.1546 27.1805 31.941 27.7447 31.941C29.0397 31.941 29.7396 32.8154 29.7396 34.4426C29.7396 36.3435 28.7999 37.2688 27.2852 37.2688C26.7314 37.2688 25.8749 37.096 25.2481 36.7702V29.6738L26.3346 29.4196V32.3173ZM26.3243 36.3942C26.6583 36.5366 27.0241 36.5568 27.2853 36.5568C28.0582 36.5568 28.6431 36.0892 28.6431 34.4426C28.6431 33.151 28.1626 32.7342 27.4628 32.7342C27.0448 32.7342 26.7421 32.846 26.3243 33.0697V36.3942ZM15.1991 32.073H15.2722L16.6925 37.1467H17.8205L19.5129 29.9378H18.2907L17.2253 35.3165H17.1525L15.7003 29.9378H14.7707L13.4129 35.3165H13.3397L12.1698 29.9378H11L12.6922 37.1467H13.82L15.1991 32.073ZM24.1415 36.8008V36.0281C23.567 36.3636 23.0449 36.5568 22.4809 36.5568C21.405 36.5568 20.8933 36.0177 20.8933 34.7978H24.2982V34.4218C24.2982 32.7647 23.4938 31.941 22.1885 31.941C20.6217 31.941 19.8174 33.0594 19.8174 34.6046C19.8174 36.2113 20.538 37.2688 22.2927 37.2688C23.0449 37.2688 23.6715 37.0655 24.1415 36.8008ZM23.3059 34.1168H20.9144C21.029 33.1003 21.5196 32.6223 22.1572 32.6223C22.7212 32.6223 23.2541 33.049 23.3059 34.1168ZM34.5446 35.6215H34.4922L32.1525 29.9378H30.8887V37.1467H31.8288V32.0428H31.9227L34.0538 37.1467H34.722L36.8529 31.9207H36.9472V37.1467H38.0752V29.9378H36.7798L34.5446 35.6215ZM39.2243 34.6046C39.2243 32.8253 40.2271 31.941 41.6058 31.941C42.9847 31.941 43.9876 32.8253 43.9876 34.6046C43.9876 36.3435 43.037 37.2688 41.6058 37.2688C40.1746 37.2688 39.2243 36.3435 39.2243 34.6046ZM42.8905 34.6046C42.8905 33.2323 42.3158 32.6529 41.6057 32.6529C40.9163 32.6529 40.3208 33.2323 40.3208 34.6046C40.3208 35.9981 40.8643 36.5568 41.6057 36.5568C42.3472 36.5568 42.8905 35.9981 42.8905 34.6046ZM47.6426 31.941C46.442 31.941 45.4494 32.4187 44.9794 32.6933V37.1467H46.0659V33.1204C46.3895 32.9377 46.9223 32.7543 47.3404 32.7543C47.873 32.7543 48.2799 32.8967 48.2799 33.7V37.1467H49.3662V33.4658C49.3662 32.4187 48.8966 31.941 47.6426 31.941ZM54.6617 36.0281V36.8008C54.1919 37.0655 53.5655 37.2688 52.8131 37.2688C51.0586 37.2688 50.3378 36.2113 50.3378 34.6046C50.3378 33.0594 51.1423 31.941 52.7089 31.941C54.0148 31.941 54.8193 32.7647 54.8193 34.4218V34.7978H51.414C51.414 36.0177 51.9258 36.5568 53.0015 36.5568C53.5655 36.5568 54.0878 36.3636 54.6617 36.0281ZM51.4348 34.1168H53.8266C53.7747 33.049 53.2416 32.6223 52.6776 32.6223C52.0402 32.6223 51.5499 33.1003 51.4348 34.1168ZM60 32.1138H58.8823L57.6911 35.8551H57.6289L56.2919 32.1138H55.1429L57.1484 37.1975C56.8973 37.9496 56.4591 38.4992 55.7488 38.4992V39.3325C56.9494 39.3325 57.5868 38.6008 58.1092 37.1975L60 32.1138Z" fill="#0068A3"/>
<path fill-rule="evenodd" clip-rule="evenodd" d="M34.7997 8.62671C36.2371 8.62671 37.5985 8.95254 38.8109 9.53102C39.0014 9.61895 39.1913 9.71569 39.3817 9.82251L38.539 10.5567L37.2728 9.28233L35.1357 11.1377L33.8664 9.78924L29.8855 13.2821L32.4376 16.0198L31.4347 16.8784L33.9484 19.6203L32.9514 20.477L36.5434 24.3688L38.6757 22.4581L40.5192 24.5057C40.1525 24.7831 39.753 25.0442 39.313 25.2855C37.9799 26.0255 36.4392 26.4491 34.7997 26.4491C29.7575 26.4491 25.645 22.4456 25.645 17.5382C25.645 12.6297 29.7575 8.62671 34.7997 8.62671ZM33.1312 16.9748L35.3082 15.0666L37.2684 17.1861L35.0917 19.0936L33.1312 16.9748ZM36.8564 18.7286L34.6793 20.6363L36.6399 22.7558L38.8168 20.8476L36.8564 18.7286ZM31.5736 13.3561L33.7505 11.4484L35.7102 13.5674L33.5333 15.4751L31.5736 13.3561ZM37.2012 10.8985L35.5685 12.3292L37.0384 13.919L38.6711 12.4878L37.2012 10.8985ZM38.4693 18.8834L40.1026 17.4522L41.5726 19.0418L39.9399 20.4727L38.4693 18.8834ZM41.538 20.6622L39.9057 22.0936L41.3757 23.6823L43.0084 22.2514L41.538 20.6622ZM40.5632 14.7362L41.6517 13.7823L42.6316 14.8418L41.5436 15.7956L40.5632 14.7362ZM40.2611 10.6344L39.1726 11.5881L40.1525 12.6476L41.2411 11.6939L40.2611 10.6344ZM41.9548 17.8842L43.0432 16.9302L44.0233 17.9895L42.9348 18.9435L41.9548 17.8842ZM38.7059 14.0939L37.0733 15.5253L38.5437 17.114L40.1758 15.6832L38.7059 14.0939Z" fill="#0068A3"/>
</svg>
